<svg xmlns="http://www.w3.org/2000/svg" version="1.1" xmlns:xlink="http://www.w3.org/1999/xlink" xmlns:svgjs="http://svgjs.com/svgjs" width="100%" height="100%"><svg width="100%" height="100%" viewBox="0 0 105 152" version="1.1" xmlns="http://www.w3.org/2000/svg" xmlns:xlink="http://www.w3.org/1999/xlink" xml:space="preserve" xmlns:serif="http://www.serif.com/" style="fill-rule:evenodd;clip-rule:evenodd;stroke-linejoin:round;stroke-miterlimit:2;"><path id="SvgjsPath1000" d="M104.524,51.497c-0,11.298 -2.278,20.773 -6.834,28.427c-4.555,7.653 -10.824,13.411 -18.805,17.274c-7.982,3.864 -17.111,5.795 -27.388,5.795c-0,0 -15.052,0.073 -18.041,0l0,47.561c-2.697,0.51 -5.594,0.838 -8.692,0.984c-3.098,0.146 -5.776,0.218 -8.036,0.218c-2.041,0 -4.665,-0.072 -7.872,-0.218c-3.207,-0.146 -6.159,-0.474 -8.856,-0.984l0,-148.258l1.531,-1.421c9.184,-0.219 17.767,-0.419 25.748,-0.602c7.981,-0.182 16.054,-0.273 24.218,-0.273c10.277,0 19.406,1.859 27.388,5.576c7.981,3.717 14.25,9.385 18.805,17.002c4.556,7.617 6.834,17.256 6.834,28.919Z" style="fill:#0bc0be;fill-rule:nonzero;"></path><path d="M80.08,40.749c-10.262,-18.532 -33.639,-25.246 -52.171,-14.984l-3.358,1.859c-11.523,6.381 -20.612,16.484 -24.531,27.576c-0.16,0.455 -0.224,41.527 -0.085,42.093c0.523,2.134 1.788,4.042 2.878,6.012l0.053,0.094c6.723,12.141 18.233,19.512 30.774,20.317c0.274,0.018 0.084,-20.373 0.084,-20.373c-0,-0 15.685,0.214 19.2,0.071c15.333,-0.624 26.735,-6.011 26.95,-6.308c11.36,-15.664 10.311,-38.107 0.258,-56.263l-0.052,-0.094Z" style="fill:#8783d1;"></path></svg><style>@media (prefers-color-scheme: light) { :root { filter: none; } }
</style></svg>