<svg xmlns="http://www.w3.org/2000/svg" version="1.1" xmlns:xlink="http://www.w3.org/1999/xlink" xmlns:svgjs="http://svgjs.com/svgjs" width="2048px" height="2048px"><svg xmlns="http://www.w3.org/2000/svg" xml:space="preserve" width="2048px" height="2048px" style="shape-rendering:geometricPrecision; text-rendering:geometricPrecision; image-rendering:optimizeQuality; fill-rule:evenodd; clip-rule:evenodd" viewBox="0 0 2048 2048" xmlns:xlink="http://www.w3.org/1999/xlink">
 <defs>
  <style type="text/css">
   
    .fil5 {fill:#262b2a}
    .fil28 {fill:#494b4d}
    .fil33 {fill:#191919}
    .fil8 {fill:#424242}
    .fil6 {fill:#000000}
    .fil7 {fill:#616161}
    .fil17 {fill:#757575}
    .fil21 {fill:#284a60}
    .fil18 {fill:#B09176}
    .fil31 {fill:#B9DCDE}
    .fil4 {fill:#BDBDBD}
    .fil32 {fill:#43718e}
    .fil27 {fill:#477998}
    .fil37 {fill:#D7B293}
    .fil25 {fill:#DCB696}
    .fil34 {fill:#5593b9}
    .fil23 {fill:#E3BC9B}
    .fil39 {fill:#E5BD9C}
    .fil30 {fill:#EAC2A0}
    .fil29 {fill:#F2C8A5}
    .fil1 {fill:#3a8a4e}
    .fil24 {fill:#F7CCA9}
    .fil26 {fill:#F7D5B8}
    .fil13 {fill:#00000}
    .fil0 {fill:#1fad45}
    .fil3 {fill:#FFD3AE}
    .fil22 {fill:#FFDCBE}
    .fil9 {fill:white}
   
  </style>
   <clipPath id="SvgjsClipPath1120">
    <path d="M1024 0c565.539,0 1024,458.461 1024,1024 0,565.539 -458.461,1024 -1024,1024 -565.539,0 -1024,-458.461 -1024,-1024 0,-565.539 458.461,-1024 1024,-1024z"></path>
   </clipPath>
 </defs>
 <g id="SvgjsG1119">
  <metadata id="SvgjsMetadata1118"></metadata>
  <path class="fil0" d="M1024 0c565.539,0 1024,458.461 1024,1024 0,565.539 -458.461,1024 -1024,1024 -565.539,0 -1024,-458.461 -1024,-1024 0,-565.539 458.461,-1024 1024,-1024z"></path>
  <g style="clip-path:url(#id0)">
   <g id="SvgjsG1117">
    <g>
     <polygon id="SvgjsPolygon1116" class="fil1" points="1220.15,482.63 2356.03,1618.51 2357.32,1620 2358.42,1621.51 2359.36,1623.07 2360.15,1624.65 2360.8,1626.26 2361.33,1627.88 2361.76,1629.53 2362.11,1631.19 2362.37,1632.86 2362.59,1634.53 2362.75,1636.21 2362.9,1637.88 2363.03,1639.55 2363.17,1641.2 2363.32,1642.85 2363.51,1644.47 2363.76,1646.08 2364,1647.62 2364.17,1649.08 2364.28,1650.46 2364.33,1651.78 2364.33,1653.04 2364.27,1654.26 2364.16,1655.45 2364.01,1656.62 2363.81,1657.78 2363.57,1658.94 2363.29,1660.12 2362.98,1661.33 2362.64,1662.57 2362.28,1663.85 2361.89,1665.2 2361.47,1666.62 2361.04,1668.12 2360.6,1669.72 2360.15,1671.42 2359.68,1673.23 2359.21,1675.17 2358.74,1677.25 2358.28,1679.48 2357.81,1681.88 2357.36,1684.44 2356.92,1687.19 2356.49,1690.13 2356.07,1693.28 2355.68,1696.65 2355.32,1700.25 2354.98,1704.08 2354.67,1708.17 2354.39,1712.41 2354.11,1716.67 2353.84,1720.96 2353.57,1725.28 2353.31,1729.6 2353.04,1733.94 2352.76,1738.28 2352.48,1742.63 2352.18,1746.97 2351.87,1751.29 2351.54,1755.61 2351.2,1759.9 2350.82,1764.17 2350.43,1768.41 2350,1772.62 2349.54,1776.78 2349.04,1780.9 2348.51,1784.97 2347.94,1788.98 2347.32,1792.94 2346.65,1796.83 2345.94,1800.65 2345.17,1804.39 2344.34,1808.05 2343.46,1811.63 2342.51,1815.12 2341.5,1818.51 2340.42,1821.81 2339.27,1824.99 2338.05,1828.07 2336.75,1831.03 2335.37,1833.87 2333.87,1836.56 2332.23,1839.05 2330.46,1841.35 2328.56,1843.48 2326.56,1845.45 2324.47,1847.24 2322.29,1848.88 2320.04,1850.38 2317.74,1851.73 2315.39,1852.94 2313.01,1854.03 2310.62,1854.99 2308.21,1855.85 2305.82,1856.59 2303.44,1857.23 2301.09,1857.78 2298.79,1858.24 2296.55,1858.62 2294.37,1858.93 2292.28,1859.17 2290.28,1859.36 2288.39,1859.49 2286.62,1859.58 2284.98,1859.62 2283.49,1859.64 2282.16,1859.63 2281,1859.6 2280.01,1859.57 2279.23,1859.53 2278.66,1859.49 2278.3,1859.46 2278.18,1859.45 1142.3,723.567 1142.42,723.578 1142.77,723.606 1143.35,723.644 1144.13,723.684 1145.11,723.721 1146.28,723.748 1147.61,723.756 1149.1,723.74 1150.74,723.693 1152.51,723.606 1154.4,723.475 1156.4,723.292 1158.49,723.049 1160.67,722.741 1162.91,722.358 1165.21,721.896 1167.56,721.348 1169.93,720.706 1172.33,719.963 1174.73,719.112 1177.13,718.147 1179.51,717.06 1181.86,715.845 1184.16,714.494 1186.41,713.003 1188.58,711.361 1190.68,709.563 1192.68,707.603 1194.57,705.472 1196.35,703.165 1197.99,700.673 1199.49,697.992 1200.87,695.15 1202.17,692.189 1203.39,689.112 1204.54,685.925 1205.62,682.632 1206.63,679.238 1207.58,675.751 1208.46,672.172 1209.29,668.508 1210.06,664.764 1210.77,660.944 1211.44,657.055 1212.06,653.101 1212.63,649.086 1213.16,645.017 1213.66,640.897 1214.12,636.733 1214.55,632.528 1214.94,628.289 1215.31,624.019 1215.66,619.725 1215.99,615.411 1216.3,611.083 1216.6,606.745 1216.88,602.402 1217.15,598.059 1217.42,593.721 1217.69,589.394 1217.96,585.082 1218.23,580.791 1218.51,576.525 1218.79,572.289 1219.1,568.2 1219.44,564.363 1219.8,560.767 1220.19,557.399 1220.6,554.249 1221.03,551.306 1221.48,548.558 1221.93,545.993 1222.39,543.602 1222.86,541.37 1223.33,539.291 1223.8,537.348 1224.26,535.533 1224.72,533.834 1225.16,532.241 1225.59,530.739 1226.01,529.321 1226.4,527.972 1226.76,526.683 1227.1,525.443 1227.41,524.24 1227.69,523.062 1227.93,521.898 1228.13,520.737 1228.28,519.567 1228.39,518.379 1228.45,517.158 1228.45,515.896 1228.4,514.58 1228.29,513.199 1228.12,511.741 1227.88,510.196 1227.63,508.591 1227.44,506.966 1227.28,505.322 1227.15,503.664 1227.02,501.996 1226.87,500.324 1226.7,498.648 1226.49,496.973 1226.22,495.305 1225.88,493.647 1225.45,492.002 1224.92,490.373 1224.27,488.767 1223.48,487.185 1222.54,485.632 1221.44,484.113 "></polygon>
     <polygon id="SvgjsPolygon1115" class="fil1" points="1142.3,723.567 2278.18,1859.45 2270.78,1858.17 1134.9,722.287 "></polygon>
     <polygon id="SvgjsPolygon1114" class="fil1" points="1134.9,722.287 2270.78,1858.17 2269.36,1876.18 1133.48,740.301 "></polygon>
     <polygon id="SvgjsPolygon1113" class="fil1" points="1133.48,740.301 2269.36,1876.18 2275.11,1883.17 2280.41,1890.13 2285.28,1897.05 2289.75,1903.9 2293.82,1910.68 2297.52,1917.39 2300.86,1923.99 2303.86,1930.49 2306.53,1936.87 2308.9,1943.12 2310.98,1949.22 2312.79,1955.16 2314.34,1960.94 2315.65,1966.53 2316.74,1971.93 2317.63,1977.13 2318.33,1982.1 2318.86,1986.84 2319.24,1991.34 2319.49,1995.59 2319.61,1999.56 2319.64,2003.26 2319.58,2006.66 2319.45,2009.76 2319.28,2012.53 2319.07,2014.98 2318.85,2017.09 2318.63,2018.84 2318.43,2020.22 2318.26,2021.22 2318.15,2021.83 2318.11,2022.04 1182.23,886.157 1182.27,885.95 1182.38,885.34 1182.55,884.337 1182.75,882.954 1182.97,881.203 1183.19,879.099 1183.4,876.651 1183.57,873.874 1183.7,870.777 1183.76,867.376 1183.73,863.682 1183.6,859.706 1183.36,855.462 1182.98,850.962 1182.45,846.219 1181.75,841.246 1180.86,836.052 1179.77,830.652 1178.46,825.059 1176.91,819.282 1175.1,813.337 1173.02,807.236 1170.65,800.989 1167.98,794.61 1164.98,788.11 1161.64,781.504 1157.94,774.803 1153.87,768.018 1149.4,761.163 1144.53,754.251 1139.23,747.292 "></polygon>
     <polygon id="SvgjsPolygon1112" class="fil1" points="1182.23,886.157 2318.11,2022.04 2321.12,2028.31 1185.24,892.424 "></polygon>
     <polygon id="SvgjsPolygon1111" class="fil1" points="1397.63,788.717 2533.51,1924.6 2534.48,1925.76 2535.09,1927.05 2535.4,1928.41 2535.46,1929.8 2535.33,1931.19 2535.04,1932.53 2534.66,1933.78 2534.23,1934.89 2533.81,1935.83 2533.45,1936.56 2533.19,1937.02 2533.09,1937.19 1397.21,801.305 1397.31,801.141 1397.57,800.676 1397.93,799.952 1398.35,799.01 1398.78,797.894 1399.16,796.646 1399.44,795.307 1399.58,793.918 1399.52,792.523 1399.21,791.163 1398.6,789.881 "></polygon>
     <polygon id="SvgjsPolygon1110" class="fil1" points="1412.17,801.697 2548.05,1937.58 2548.12,1937.66 1412.24,801.783 "></polygon>
     <polygon id="SvgjsPolygon1109" class="fil1" points="1412.24,801.783 2548.12,1937.66 2549.05,1939.06 2549.7,1940.41 2550.1,1941.72 2550.29,1942.97 2550.28,1944.15 2550.12,1945.27 2549.83,1946.31 2549.45,1947.27 2549,1948.15 2548.51,1948.92 2548.01,1949.6 2547.54,1950.17 2547.12,1950.62 2546.78,1950.95 2546.55,1951.16 2546.47,1951.23 1410.59,815.343 1410.67,815.273 1410.9,815.07 1411.23,814.738 1411.65,814.284 1412.13,813.718 1412.63,813.042 1413.12,812.265 1413.57,811.392 1413.95,810.432 1414.24,809.389 1414.4,808.27 1414.4,807.084 1414.22,805.836 1413.82,804.531 1413.17,803.179 "></polygon>
     <polygon id="SvgjsPolygon1108" class="fil1" points="1422.7,818.131 2558.58,1954.01 2559.45,1955.74 2559.97,1957.41 2560.17,1959.02 2560.1,1960.56 2559.79,1962.02 2559.3,1963.4 2558.66,1964.69 2557.91,1965.88 2557.09,1966.96 2556.25,1967.92 2555.42,1968.75 2554.65,1969.45 2553.98,1970.01 2553.45,1970.42 2553.1,1970.67 2552.98,1970.76 1417.1,834.877 1417.22,834.791 1417.57,834.539 1418.1,834.129 1418.77,833.57 1419.54,832.868 1420.37,832.034 1421.21,831.073 1422.02,829.996 1422.77,828.809 1423.42,827.521 1423.91,826.14 1424.22,824.676 1424.29,823.134 1424.09,821.523 1423.57,819.853 "></polygon>
     <polygon id="SvgjsPolygon1107" class="fil1" points="1427.53,837.283 2563.41,1973.17 2564.29,1974.35 2564.87,1975.64 2565.2,1977.01 2565.32,1978.4 2565.28,1979.76 2565.12,1981.05 2564.89,1982.21 2564.63,1983.2 2564.39,1983.97 2564.21,1984.46 2564.15,1984.64 1428.26,848.756 1428.33,848.58 1428.51,848.084 1428.75,847.318 1429.01,846.33 1429.24,845.168 1429.4,843.881 1429.44,842.519 1429.32,841.129 1428.99,839.761 1428.41,838.463 "></polygon>
     <polygon id="SvgjsPolygon1106" class="fil1" points="1428.26,848.756 2564.15,1984.64 2564.1,1984.68 2563.95,1984.8 2563.71,1985 2563.37,1985.28 2562.94,1985.64 2562.42,1986.06 2561.82,1986.57 2561.12,1987.14 2560.34,1987.78 2559.47,1988.5 2558.53,1989.28 2557.5,1990.12 2556.39,1991.04 2555.21,1992.01 2553.95,1993.04 2552.61,1994.14 2551.21,1995.29 2549.73,1996.5 2548.18,1997.76 2546.57,1999.08 2544.89,2000.45 2543.15,2001.87 2541.34,2003.34 2539.48,2004.85 2537.55,2006.42 2535.57,2008.02 2533.53,2009.67 2531.44,2011.37 2529.3,2013.1 2527.1,2014.87 2524.86,2016.68 2522.57,2018.52 2520.27,2020.31 2518.01,2021.95 2515.79,2023.45 2513.62,2024.82 2511.48,2026.06 2509.39,2027.18 2507.36,2028.18 2505.37,2029.08 2503.44,2029.87 2501.56,2030.55 2499.74,2031.15 2497.98,2031.66 2496.28,2032.09 2494.65,2032.44 2493.09,2032.72 2491.6,2032.94 2490.18,2033.1 2488.83,2033.21 2487.56,2033.27 2486.37,2033.29 2485.26,2033.28 2484.24,2033.23 2483.3,2033.17 2482.45,2033.08 2481.7,2032.99 2481.03,2032.88 2480.46,2032.78 2479.99,2032.68 2479.62,2032.6 2479.36,2032.53 2479.19,2032.49 2479.14,2032.47 1343.26,896.587 1343.31,896.604 1343.48,896.649 1343.74,896.717 1344.11,896.802 1344.58,896.899 1345.15,897.002 1345.82,897.103 1346.57,897.2 1347.42,897.284 1348.36,897.351 1349.38,897.395 1350.49,897.409 1351.68,897.388 1352.95,897.327 1354.3,897.219 1355.72,897.059 1357.21,896.84 1358.77,896.558 1360.4,896.205 1362.1,895.777 1363.86,895.268 1365.68,894.672 1367.55,893.983 1369.49,893.194 1371.47,892.302 1373.51,891.3 1375.6,890.18 1377.73,888.938 1379.91,887.571 1382.13,886.068 1384.39,884.427 1386.69,882.64 1388.98,880.796 1391.22,878.988 1393.42,877.216 1395.56,875.483 1397.65,873.791 1399.69,872.141 1401.67,870.533 1403.6,868.97 1405.46,867.453 1407.27,865.984 1409.01,864.564 1410.69,863.194 1412.3,861.877 1413.85,860.613 1415.33,859.405 1416.73,858.253 1418.07,857.16 1419.33,856.125 1420.51,855.153 1421.62,854.242 1422.65,853.397 1423.59,852.616 1424.46,851.903 1425.24,851.259 1425.93,850.685 1426.54,850.182 1427.06,849.753 1427.49,849.398 1427.83,849.119 1428.07,848.919 1428.21,848.798 "></polygon>
     <polygon id="SvgjsPolygon1105" class="fil1" points="1343.26,896.587 2479.14,2032.47 2478.85,2032.64 2478.02,2033.14 2476.66,2033.94 2474.82,2035.04 2472.51,2036.41 2469.78,2038.02 2466.66,2039.88 2463.17,2041.94 2459.36,2044.2 2455.24,2046.64 2450.85,2049.24 2446.22,2051.97 2441.39,2054.82 2436.38,2057.77 2431.22,2060.81 2425.96,2063.91 2420.61,2067.05 2415.21,2070.22 2409.79,2073.39 2404.38,2076.55 2399.02,2079.68 2393.73,2082.76 2388.55,2085.77 2383.5,2088.69 2378.62,2091.5 2373.94,2094.19 2369.5,2096.73 2365.31,2099.11 2361.42,2101.3 2357.86,2103.29 2354.65,2105.07 2351.82,2106.6 2349.25,2107.97 2346.76,2109.27 2344.36,2110.49 2342.04,2111.65 2339.81,2112.74 2337.66,2113.77 2335.6,2114.73 2333.63,2115.63 2331.74,2116.48 2329.93,2117.26 2328.2,2117.99 2326.56,2118.67 2325.01,2119.29 2323.53,2119.87 2322.14,2120.39 2320.83,2120.87 2319.6,2121.31 2318.45,2121.71 2317.39,2122.06 2316.4,2122.38 2315.5,2122.66 2314.67,2122.9 2313.93,2123.12 2313.27,2123.3 2312.68,2123.45 2312.18,2123.58 2311.75,2123.69 2311.4,2123.76 2311.13,2123.82 2310.93,2123.86 2310.82,2123.88 2310.78,2123.89 1174.9,988.009 1174.94,988.002 1175.05,987.98 1175.25,987.941 1175.52,987.882 1175.87,987.803 1176.29,987.7 1176.8,987.572 1177.38,987.418 1178.05,987.235 1178.79,987.021 1179.62,986.775 1180.52,986.495 1181.51,986.179 1182.57,985.823 1183.72,985.429 1184.95,984.991 1186.26,984.51 1187.65,983.983 1189.13,983.408 1190.68,982.783 1192.32,982.107 1194.05,981.378 1195.86,980.593 1197.75,979.75 1199.72,978.849 1201.78,977.886 1203.93,976.86 1206.16,975.77 1208.48,974.612 1210.88,973.385 1213.37,972.088 1215.94,970.718 1218.77,969.185 1221.97,967.412 1225.54,965.42 1229.43,963.224 1233.62,960.846 1238.06,958.305 1242.74,955.618 1247.62,952.804 1252.66,949.885 1257.85,946.875 1263.14,943.797 1268.5,940.668 1273.91,937.508 1279.32,934.334 1284.73,931.168 1290.07,928.026 1295.34,924.928 1300.5,921.892 1305.51,918.939 1310.34,916.086 1314.97,913.353 1319.35,910.758 1323.47,908.322 1327.29,906.06 1330.78,903.994 1333.9,902.142 1336.63,900.524 1338.93,899.157 1340.78,898.061 1342.14,897.255 1342.97,896.757 "></polygon>
     <polygon id="SvgjsPolygon1104" class="fil1" points="1018.2,846.298 2154.08,1982.18 2054.61,2010.04 2054.59,2010.4 2054.54,2011.44 2054.46,2013.12 2054.36,2015.4 2054.22,2018.22 2054.07,2021.55 2053.89,2025.34 2053.69,2029.55 2053.47,2034.12 2053.23,2039.02 2052.98,2044.2 2052.72,2049.62 2052.44,2055.22 2052.15,2060.97 2051.86,2066.82 2051.56,2072.72 2051.26,2078.64 2050.95,2084.52 2050.64,2090.32 2050.33,2095.99 2050.03,2101.49 2049.73,2106.78 2049.44,2111.81 2049.16,2116.53 2048.88,2120.91 2048.62,2124.89 2048.38,2128.43 2048.14,2131.48 2047.93,2134 2047.74,2135.95 2047.56,2137.28 2047.42,2137.95 2047.25,2138.59 2047.3,2139.25 2047.53,2139.94 2047.95,2140.67 2048.51,2141.47 2049.22,2142.33 2050.04,2143.28 2050.97,2144.33 2051.98,2145.48 2053.06,2146.76 2054.18,2148.18 2055.34,2149.74 2056.51,2151.46 2057.67,2153.37 2058.81,2155.45 2059.91,2157.74 2060.43,2158.91 2060.91,2160.02 2061.35,2161.09 2061.76,2162.11 2062.14,2163.1 2062.5,2164.05 2062.83,2164.98 2063.15,2165.89 2063.45,2166.79 2063.74,2167.68 2064.02,2168.57 2064.3,2169.46 2064.58,2170.36 2064.86,2171.27 2065.15,2172.21 2065.45,2173.17 2065.76,2174.16 2066.09,2175.19 2066.44,2176.27 2066.82,2177.39 2067.22,2178.57 2067.65,2179.81 2068.12,2181.12 2068.63,2182.5 2069.18,2183.95 2069.77,2185.49 2070.42,2187.12 2071.12,2188.84 2071.87,2190.67 2072.68,2192.6 2073.56,2194.64 2074.5,2196.8 2075.37,2198.92 2076.04,2200.85 2076.53,2202.59 2076.82,2204.15 2076.95,2205.55 2076.91,2206.78 2076.71,2207.87 2076.36,2208.81 2075.88,2209.63 2075.26,2210.32 2074.52,2210.9 2073.67,2211.37 2072.71,2211.75 2071.66,2212.04 2070.52,2212.26 2069.3,2212.41 2068.02,2212.5 2066.67,2212.54 2065.26,2212.55 2063.82,2212.52 2062.34,2212.47 2060.83,2212.4 2059.31,2212.34 2057.77,2212.27 2056.24,2212.23 2054.71,2212.2 2053.21,2212.21 2051.72,2212.27 2050.27,2212.37 2048.87,2212.53 2047.52,2212.76 2046.22,2213.08 2043.68,2213.66 2041.11,2214.01 2038.53,2214.15 2035.98,2214.11 2033.48,2213.92 2031.06,2213.61 2028.74,2213.2 2026.54,2212.72 2024.51,2212.19 2022.66,2211.65 2021.02,2211.11 2019.62,2210.61 2018.49,2210.18 2017.64,2209.83 2017.12,2209.61 2016.94,2209.53 881.055,1073.65 881.237,1073.73 881.762,1073.95 882.607,1074.3 883.743,1074.73 885.142,1075.23 886.781,1075.76 888.629,1076.31 890.663,1076.83 892.854,1077.32 895.175,1077.73 897.6,1078.04 900.101,1078.23 902.653,1078.27 905.229,1078.12 907.802,1077.78 910.344,1077.19 911.636,1076.88 912.989,1076.65 914.394,1076.49 915.842,1076.38 917.324,1076.33 918.832,1076.32 920.358,1076.34 921.892,1076.39 923.426,1076.45 924.95,1076.52 926.457,1076.58 927.937,1076.63 929.383,1076.66 930.785,1076.66 932.135,1076.62 933.422,1076.53 934.641,1076.38 935.781,1076.16 936.833,1075.87 937.79,1075.49 938.642,1075.01 939.38,1074.44 939.996,1073.74 940.482,1072.93 940.828,1071.98 941.026,1070.9 941.068,1069.66 940.944,1068.27 940.645,1066.71 940.163,1064.97 939.491,1063.04 938.617,1060.92 937.674,1058.76 936.799,1056.72 935.988,1054.79 935.234,1052.96 934.539,1051.24 933.894,1049.61 933.3,1048.07 932.749,1046.61 932.242,1045.24 931.774,1043.93 931.339,1042.69 930.936,1041.51 930.561,1040.39 930.21,1039.31 929.88,1038.28 929.567,1037.29 929.268,1036.33 928.98,1035.39 928.698,1034.48 928.419,1033.58 928.14,1032.69 927.857,1031.8 927.566,1030.91 927.265,1030.01 926.949,1029.1 926.614,1028.17 926.259,1027.21 925.879,1026.23 925.469,1025.2 925.027,1024.14 924.55,1023.02 924.034,1021.86 922.933,1019.57 921.792,1017.48 920.627,1015.58 919.458,1013.86 918.301,1012.3 917.175,1010.88 916.098,1009.6 915.087,1008.45 914.16,1007.4 913.335,1006.45 912.63,1005.59 912.064,1004.79 911.653,1004.06 911.416,1003.36 911.37,1002.71 911.534,1002.07 911.683,1001.4 911.857,1000.07 912.05,998.122 912.263,995.598 912.494,992.544 912.741,989.004 913.002,985.025 913.275,980.651 913.559,975.928 913.85,970.899 914.149,965.61 914.453,960.107 914.759,954.433 915.067,948.634 915.374,942.755 915.679,936.842 915.979,930.937 916.273,925.089 916.559,919.34 916.835,913.736 917.101,908.32 917.352,903.141 917.587,898.242 917.807,893.666 918.007,889.462 918.186,885.67 918.343,882.34 918.476,879.514 918.582,877.237 918.66,875.557 918.708,874.515 918.725,874.157 "></polygon>
     <polygon id="SvgjsPolygon1103" class="fil1" points="1167.8,1064.28 2303.69,2200.16 2373.51,2295.79 1237.63,1159.91 "></polygon>
     <polygon id="SvgjsPolygon1102" class="fil1" points="1237.63,1159.91 2373.51,2295.79 2370.03,2299.33 2370.2,2299.6 2370.71,2300.37 2371.54,2301.62 2372.67,2303.32 2374.07,2305.43 2375.72,2307.93 2377.6,2310.78 2379.7,2313.96 2381.98,2317.43 2384.43,2321.15 2387.03,2325.11 2389.76,2329.27 2392.59,2333.6 2395.51,2338.06 2398.49,2342.63 2401.52,2347.27 2404.56,2351.96 2407.61,2356.66 2410.63,2361.35 2413.62,2365.98 2416.54,2370.54 2419.38,2374.98 2422.11,2379.29 2424.72,2383.42 2427.18,2387.34 2429.47,2391.04 2431.57,2394.46 2433.46,2397.6 2435.12,2400.4 2436.53,2402.85 2437.67,2404.9 2438.51,2406.54 2439.14,2408 2439.66,2409.54 2440.08,2411.15 2440.39,2412.82 2440.62,2414.55 2440.76,2416.32 2440.81,2418.14 2440.8,2419.98 2440.71,2421.85 2440.56,2423.72 2440.35,2425.61 2440.1,2427.49 2439.79,2429.36 2439.45,2431.21 2439.08,2433.03 2438.67,2434.82 2438.25,2436.56 2437.81,2438.25 2437.36,2439.88 2436.91,2441.44 2436.46,2442.93 2436.01,2444.32 2435.59,2445.63 2435.18,2446.83 2434.79,2447.92 2434.44,2448.89 2434.13,2449.74 2433.86,2450.45 2433.64,2451.02 2433.48,2451.43 2433.37,2451.69 2433.34,2451.77 1297.46,1315.89 1297.49,1315.8 1297.59,1315.55 1297.76,1315.13 1297.98,1314.57 1298.25,1313.86 1298.56,1313.01 1298.91,1312.04 1299.3,1310.95 1299.7,1309.75 1300.13,1308.44 1300.58,1307.04 1301.03,1305.56 1301.48,1304 1301.93,1302.37 1302.37,1300.68 1302.79,1298.94 1303.2,1297.15 1303.57,1295.33 1303.91,1293.48 1304.22,1291.61 1304.47,1289.73 1304.68,1287.84 1304.83,1285.96 1304.91,1284.1 1304.93,1282.25 1304.88,1280.44 1304.74,1278.67 1304.51,1276.94 1304.2,1275.26 1303.78,1273.65 1303.26,1272.12 1302.63,1270.66 1301.79,1269.02 1300.65,1266.96 1299.24,1264.52 1297.58,1261.71 1295.69,1258.58 1293.59,1255.15 1291.29,1251.46 1288.83,1247.53 1286.23,1243.4 1283.5,1239.1 1280.66,1234.65 1277.74,1230.1 1274.75,1225.46 1271.73,1220.78 1268.68,1216.08 1265.64,1211.39 1262.61,1206.75 1259.63,1202.18 1256.71,1197.71 1253.88,1193.39 1251.15,1189.23 1248.55,1185.27 1246.1,1181.55 1243.81,1178.08 1241.72,1174.9 1239.84,1172.05 1238.18,1169.55 1236.79,1167.44 1235.66,1165.74 1234.83,1164.49 1234.32,1163.72 1234.14,1163.45 "></polygon>
     <polygon id="SvgjsPolygon1101" class="fil1" points="1151.03,1253.54 2286.92,2389.42 2273.41,2403.41 1137.53,1267.53 "></polygon>
     <polygon id="SvgjsPolygon1100" class="fil1" points="1029.53,1243.62 2165.41,2379.5 2109.08,2454.94 973.196,1319.06 "></polygon>
     <polygon id="SvgjsPolygon1099" class="fil1" points="1137.53,1267.53 2273.41,2403.41 2271.83,2402.06 1135.95,1266.18 "></polygon>
     <polygon id="SvgjsPolygon1098" class="fil1" points="1135.95,1266.18 2271.83,2402.06 2267.42,2406.54 1131.54,1270.66 "></polygon>
     <polygon id="SvgjsPolygon1097" class="fil1" points="973.196,1319.06 2109.08,2454.94 2106.61,2457.22 2104.17,2459.33 2101.75,2461.29 2099.37,2463.09 2097.02,2464.75 2094.7,2466.27 2092.43,2467.65 2090.21,2468.9 2088.03,2470.03 2085.91,2471.05 2083.84,2471.95 2081.83,2472.75 2079.89,2473.46 2078.01,2474.07 2076.2,2474.59 2074.46,2475.04 2072.81,2475.41 2071.23,2475.71 2069.74,2475.96 2068.34,2476.14 2067.03,2476.28 2065.81,2476.37 2064.69,2476.43 2063.68,2476.45 2062.77,2476.45 2061.97,2476.43 2061.29,2476.4 2060.72,2476.35 2060.27,2476.31 2059.94,2476.27 2059.74,2476.25 2059.68,2476.23 923.796,1340.35 923.863,1340.36 924.061,1340.39 924.386,1340.43 924.835,1340.47 925.404,1340.51 926.09,1340.55 926.89,1340.57 927.798,1340.57 928.813,1340.55 929.93,1340.49 931.146,1340.4 932.457,1340.26 933.861,1340.07 935.351,1339.83 936.928,1339.53 938.584,1339.16 940.319,1338.71 942.127,1338.19 944.005,1337.57 945.95,1336.87 947.958,1336.07 950.026,1335.17 952.15,1334.15 954.327,1333.02 956.552,1331.76 958.822,1330.38 961.135,1328.87 963.485,1327.21 965.87,1325.41 968.285,1323.45 970.729,1321.34 "></polygon>
     <polygon id="SvgjsPolygon1096" class="fil1" points="923.796,1340.35 2059.68,2476.23 1883.64,2424.45 747.758,1288.57 "></polygon>
     <polygon id="SvgjsPolygon1095" class="fil1" points="1119.73,1569.56 2255.61,2705.44 2249.97,2704.59 2245.17,2703.59 2241.14,2702.48 2237.81,2701.28 2235.12,2700.01 2233,2698.71 2231.39,2697.41 1095.51,1561.52 1097.12,1562.83 1099.24,1564.13 1101.93,1565.39 1105.26,1566.6 1109.29,1567.71 1114.09,1568.71 "></polygon>
     <polygon id="SvgjsPolygon1094" class="fil1" points="1131.54,1270.66 2267.42,2406.54 2220.01,2365.7 1084.13,1229.82 "></polygon>
     <polygon id="SvgjsPolygon1093" class="fil1" points="1084.13,1229.82 2220.01,2365.7 2206.35,2397.96 1070.47,1262.08 "></polygon>
     <polygon id="SvgjsPolygon1092" class="fil1" points="1070.47,1262.08 2206.35,2397.96 2202.73,2395.49 1066.85,1259.61 "></polygon>
     <polygon id="SvgjsPolygon1091" class="fil1" points="1066.85,1259.61 2202.73,2395.49 2200.36,2401.09 1064.48,1265.2 "></polygon>
     <polygon id="SvgjsPolygon1090" class="fil1" points="1064.48,1265.2 2200.36,2401.09 2165.41,2379.5 1029.53,1243.62 "></polygon>
     <polygon id="SvgjsPolygon1089" class="fil1" points="1297.46,1315.89 2433.34,2451.77 2370.14,2605.45 1234.26,1469.57 "></polygon>
     <polygon id="SvgjsPolygon1088" class="fil1" points="1330.29,1526.8 2466.17,2662.68 2468.19,2664.72 2469.84,2666.96 2471.17,2669.34 2472.2,2671.81 2472.97,2674.33 2473.51,2676.84 2473.85,2679.29 2474.03,2681.65 2474.08,2683.84 2474.03,2685.84 2473.92,2687.58 2473.77,2689.03 2473.63,2690.12 2473.52,2690.81 2473.47,2691.05 1337.59,1555.17 1337.64,1554.93 1337.75,1554.24 1337.89,1553.14 1338.04,1551.7 1338.15,1549.96 1338.2,1547.96 1338.15,1545.76 1337.97,1543.41 1337.63,1540.95 1337.09,1538.44 1336.32,1535.93 1335.29,1533.45 1333.96,1531.08 1332.31,1528.84 "></polygon>
     <polygon id="SvgjsPolygon1087" class="fil1" points="1234.26,1469.57 2370.14,2605.45 2407.9,2645.73 1272.02,1509.85 "></polygon>
     <polygon id="SvgjsPolygon1086" class="fil1" points="1337.59,1555.17 2473.47,2691.05 2472.64,2693.32 2471.64,2695.45 2470.47,2697.45 2469.15,2699.32 2467.69,2701.07 2466.11,2702.69 2464.42,2704.2 2462.63,2705.59 2460.76,2706.88 2458.82,2708.06 2456.82,2709.14 2454.78,2710.13 2452.7,2711.03 2450.61,2711.84 2448.52,2712.57 2446.44,2713.23 2444.38,2713.8 2442.35,2714.31 2440.38,2714.76 2438.47,2715.15 2436.63,2715.48 2434.89,2715.75 2433.25,2715.99 2431.72,2716.17 2430.33,2716.32 2429.07,2716.44 2427.98,2716.53 2427.05,2716.59 2426.3,2716.63 2425.75,2716.65 2425.42,2716.66 2425.3,2716.66 1289.42,1580.78 1289.53,1580.78 1289.87,1580.77 1290.42,1580.74 1291.17,1580.7 1292.09,1580.64 1293.19,1580.56 1294.44,1580.44 1295.84,1580.29 1297.37,1580.1 1299.01,1579.87 1300.75,1579.59 1302.59,1579.26 1304.5,1578.88 1306.47,1578.43 1308.5,1577.92 1310.56,1577.34 1312.64,1576.69 1314.73,1575.96 1316.82,1575.15 1318.89,1574.25 1320.94,1573.26 1322.93,1572.18 1324.88,1571 1326.75,1569.71 1328.54,1568.31 1330.23,1566.81 1331.81,1565.19 1333.26,1563.44 1334.59,1561.57 1335.76,1559.57 1336.76,1557.44 "></polygon>
     <polygon id="SvgjsPolygon1085" class="fil1" points="1289.42,1580.78 2425.3,2716.66 2422.32,2717.18 2419.08,2717.54 2415.61,2717.74 2411.94,2717.8 2408.07,2717.72 2404.05,2717.51 2399.88,2717.19 2395.6,2716.76 2391.22,2716.23 2386.77,2715.61 2382.28,2714.92 2377.76,2714.16 2373.23,2713.34 2368.73,2712.48 2364.27,2711.57 2359.87,2710.64 2355.57,2709.68 2351.37,2708.72 2347.32,2707.76 2343.42,2706.81 2339.69,2705.88 2336.18,2704.98 2332.89,2704.11 2329.84,2703.3 2327.07,2702.55 2324.6,2701.86 2322.44,2701.26 2320.63,2700.74 2319.18,2700.32 2318.11,2700.01 2317.45,2699.81 2317.23,2699.75 1181.35,1563.86 1181.57,1563.93 1182.23,1564.12 1183.29,1564.44 1184.75,1564.86 1186.56,1565.37 1188.72,1565.98 1191.19,1566.66 1193.96,1567.42 1197,1568.23 1200.3,1569.09 1203.81,1569.99 1207.53,1570.93 1211.44,1571.88 1215.49,1572.84 1219.69,1573.8 1223.99,1574.75 1228.39,1575.69 1232.85,1576.59 1237.35,1577.46 1241.88,1578.28 1246.4,1579.04 1250.89,1579.73 1255.34,1580.35 1259.72,1580.87 1264,1581.3 1268.17,1581.63 1272.19,1581.84 1276.05,1581.92 1279.73,1581.86 1283.2,1581.66 1286.44,1581.3 "></polygon>
     <polygon id="SvgjsPolygon1084" class="fil1" points="1181.35,1563.86 2317.23,2699.75 2313.05,2700.87 2309.04,2701.89 2305.2,2702.8 2301.52,2703.61 2298.01,2704.33 2294.65,2704.96 2291.46,2705.5 2288.41,2705.96 2285.52,2706.34 2282.78,2706.66 2280.19,2706.91 2277.74,2707.09 2275.44,2707.22 2273.28,2707.3 2271.25,2707.34 2269.36,2707.33 2267.61,2707.28 2265.98,2707.2 2264.48,2707.09 2263.11,2706.97 2261.86,2706.82 2260.74,2706.66 2259.73,2706.5 2258.84,2706.33 2258.06,2706.16 2257.4,2706 2256.84,2705.85 2256.39,2705.71 2256.04,2705.6 2255.8,2705.52 2255.65,2705.46 2255.61,2705.44 1119.73,1569.56 1119.77,1569.58 1119.92,1569.63 1120.16,1569.72 1120.51,1569.83 1120.96,1569.96 1121.52,1570.11 1122.18,1570.28 1122.96,1570.44 1123.85,1570.61 1124.86,1570.78 1125.98,1570.94 1127.23,1571.08 1128.6,1571.21 1130.1,1571.32 1131.72,1571.4 1133.48,1571.44 1135.37,1571.45 1137.4,1571.42 1139.56,1571.34 1141.86,1571.21 1144.31,1571.02 1146.9,1570.78 1149.64,1570.46 1152.53,1570.08 1155.57,1569.62 1158.77,1569.08 1162.13,1568.45 1165.64,1567.73 1169.32,1566.92 1173.16,1566.01 1177.17,1564.99 "></polygon>
     <polygon id="SvgjsPolygon1083" class="fil1" points="747.758,1288.57 1883.64,2424.45 1878.66,2424.9 1873.9,2425.7 1869.33,2426.84 1864.98,2428.28 1860.82,2430.01 1856.85,2431.99 1853.08,2434.21 1849.5,2436.64 1846.11,2439.25 1842.9,2442.03 1839.86,2444.95 1837.01,2447.97 1834.32,2451.09 1831.8,2454.27 1829.45,2457.49 1827.26,2460.73 1825.23,2463.96 1823.36,2467.16 1821.64,2470.3 1820.06,2473.36 1818.63,2476.31 1817.35,2479.14 1816.2,2481.81 1815.19,2484.3 1814.3,2486.59 1813.55,2488.66 1812.93,2490.47 1812.42,2492.01 1812.03,2493.25 1811.76,2494.16 1811.6,2494.73 1811.54,2494.92 675.663,1359.04 675.716,1358.85 675.877,1358.28 676.15,1357.36 676.537,1356.13 677.044,1354.59 677.671,1352.78 678.423,1350.71 679.304,1348.42 680.318,1345.93 681.466,1343.26 682.752,1340.43 684.18,1337.48 685.754,1334.42 687.477,1331.28 689.351,1328.08 691.381,1324.85 693.57,1321.61 695.921,1318.39 698.438,1315.21 701.124,1312.09 703.981,1309.06 707.016,1306.15 710.228,1303.37 713.623,1300.75 717.204,1298.33 720.974,1296.11 724.936,1294.12 729.095,1292.4 733.453,1290.96 738.015,1289.82 742.782,1289.02 "></polygon>
     <polygon id="SvgjsPolygon1082" class="fil1" points="675.663,1359.04 1811.54,2494.92 1810.24,2496.82 1808.85,2498.56 1807.38,2500.15 1805.87,2501.6 1804.33,2502.9 1802.8,2504.06 1801.3,2505.09 1799.85,2506 1798.47,2506.77 1797.2,2507.43 1796.06,2507.98 1795.07,2508.42 1794.26,2508.75 1793.64,2508.98 1793.26,2509.12 1793.12,2509.16 657.243,1373.28 657.376,1373.23 657.762,1373.1 658.374,1372.87 659.188,1372.54 660.179,1372.1 661.321,1371.55 662.592,1370.89 663.964,1370.11 665.415,1369.21 666.918,1368.18 668.45,1367.01 669.986,1365.71 671.5,1364.27 672.967,1362.68 674.363,1360.94 "></polygon>
     <polygon id="SvgjsPolygon1081" class="fil1" points="657.243,1373.28 1793.12,2509.16 1793,2509.2 1792.62,2509.3 1792.02,2509.45 1791.21,2509.64 1790.21,2509.85 1789.03,2510.07 1787.7,2510.29 1786.22,2510.48 1784.63,2510.63 1782.93,2510.74 1781.15,2510.78 1779.29,2510.75 1777.39,2510.62 1775.46,2510.38 1773.5,2510.02 1771.56,2509.53 1769.63,2508.89 1767.74,2508.08 1765.9,2507.09 1764.14,2505.91 1762.47,2504.52 626.591,1368.64 628.261,1370.03 630.022,1371.21 631.857,1372.2 633.747,1373 635.675,1373.65 637.623,1374.14 639.575,1374.5 641.51,1374.73 643.413,1374.86 645.265,1374.9 647.049,1374.86 648.747,1374.75 650.341,1374.59 651.814,1374.4 653.148,1374.19 654.325,1373.97 655.328,1373.76 656.139,1373.57 656.741,1373.42 657.114,1373.31 "></polygon>
     <polygon id="SvgjsPolygon1080" class="fil1" points="1174.9,988.009 2310.78,2123.89 2303.69,2200.16 1167.8,1064.28 "></polygon>
    </g>
    <path id="SvgjsPath1079" class="fil1" d="M1218.79 572.289c-3.10748,44.9965 -4.14803,96.0568 -19.3016,125.702 -15.1536,29.6457 -57.1914,25.5756 -57.1914,25.5756l-7.39843 -1.28032 -1.41969 18.0142c63.7193,74.7095 48.7489,145.856 48.7489,145.856l3.00709 6.26693 131.971 -50.576c5.38229,-20.0988 18.0709,-30.0721 18.0709,-30.0721l4.13859 -1.40906 1.85079 -1.71614 22.3524 -5.39882c17.0291,-19.6311 19.0394,-11.2287 19.9784,-14.0882 0.938977,-2.85945 5.62205,-3.06851 5.62205,-3.06851 16.976,0.581103 7.99253,15.2102 7.99253,15.2102 8.97875,-7.22363 15.0248,0.477166 15.0248,0.477166 5.74725,7.54489 -1.64764,13.5602 -1.64764,13.5602 5.98937,-3.1252 12.1134,2.78858 12.1134,2.78858 5.66339,9.31064 -5.60434,16.7457 -5.60434,16.7457 17.6953,-1.83425 11.1662,13.8791 11.1662,13.8791 0,0 -16.8933,14.0303 -41.5772,33.8835 -24.6839,19.8532 -43.428,13.9476 -43.428,13.9476 0,0 -99.3887,59.1248 -127.317,74.1308 -27.9284,15.0059 -41.0433,17.2914 -41.0433,17.2914l-7.09489 76.2686 69.8245 95.6339 -3.48425 3.53859c0,0 61.1504,92.1013 68.4851,107.206 7.33465,15.1051 -5.17323,45.2339 -5.17323,45.2339l-63.1949 153.677 37.7563 40.2803c0,0 41.9185,6.27402 55.8674,15.1488 13.9488,8.87481 9.70749,30.1713 9.70749,30.1713 -7.8626,24.9827 -48.1737,25.6122 -48.1737,25.6122 -30.3756,6.48662 -108.07,-16.9169 -108.07,-16.9169 -45.4819,12.6201 -61.6229,5.69528 -61.6229,5.69528 -32.3717,-4.11496 -26.4886,-15.5539 -26.4886,-15.5539 -0.526772,-17.1957 8.98347,-28.3984 8.98347,-28.3984l6.01536 -3.79961 7.58386 -22.9229c11.7662,-15.1547 21.7394,-42.0709 21.7394,-42.0709 2.25236,0 4.24607,1.64173 4.24607,1.64173l1.74331 -4.76693 1.96181 0.346063c17.7555,-81.7501 50.5607,-151.507 50.5607,-151.507l-45.0366 -48.9851 -13.5095 13.9902 -1.57205 -1.35473 -4.41733 4.47992 -47.4071 -40.8378 -13.6606 32.2607 -3.62008 -2.47087 -2.36929 5.59607 -34.9453 -21.5858 -56.3374 75.4406c-26.4319,25.2 -49.3996,21.2929 -49.3996,21.2929l-176.039 -51.7819c-54.2103,2.78268 -72.0945,70.4693 -72.0945,70.4693 -6.63544,10.5437 -18.4205,14.237 -18.4205,14.237 0,0 -44.8595,13.5532 -37.9618,-37.6973 6.89764,-51.2504 44.928,-112.893 44.928,-112.893 -4.16811,-73.7764 31.6441,-84.7607 31.6441,-84.7607l32.5406 23.1213 21.026 13.5354 33.0803 29.6646c33.639,2.98229 128.588,31.9819 128.588,31.9819l23.7449 -51.5752 56.2099 -161.724 27.1559 -176.632 -99.4737 27.8587c0,0 -5.72717,124.523 -7.19056,127.909 -1.46339,3.38622 6.77008,7.03111 12.4996,19.7917 5.72953,12.7606 4.16693,15.365 14.5831,39.0626 10.4161,23.6977 -14.8429,12.5008 -28.2733,16.2732 -13.4303,3.77244 -29.289,-3.54803 -29.289,-3.54803 0,0 -9.97796,-16.6181 -10.9276,-44.4957 -0.949607,-27.8776 15.8882,-33.2079 15.8882,-33.2079 0,0 -40.4244,-117.834 -37.8851,-161.935 2.53937,-44.1012 38.6174,-28.1469 59.2371,-35.5878 20.6197,-7.44095 128.613,-47.0965 128.613,-47.0965l4.34292 -29.987c0,0 9.19843,-53.1556 4.50118,-65.2193 -4.69725,-12.0638 0.103937,-25.8225 -9.4878,-47.1189 -9.59174,-21.2965 -5.38111,-66.4335 7.97599,-103.808 13.3571,-37.3748 60.4678,-42.1666 125.27,-37.7398 64.8024,4.42678 56.3752,25.761 59.2937,42.7477 2.91851,16.9866 -5.97756,17.0965 -9.08505,62.093z"></path>
   </g>
  </g>
  <g id="SvgjsG1078">
   <path id="SvgjsPath1077" class="fil3" d="M1146.84 1461.4c-7.32993,22.7882 5.2004,29.3398 28.565,40.6181 23.3599,11.2654 40.3063,6.77481 51.5764,-16.5921l68.5997 -166.811c11.2701,-23.3658 1.47047,-51.4465 -21.8917,-62.7178 -23.3622,-11.2677 -37.7575,2.40827 -56.0587,20.8016 -34.8532,35.0209 -70.7894,184.701 -70.7906,184.701z"></path>
   <path id="SvgjsPath1076" class="fil4" d="M1158.21 1418.62c5.16024,1.93937 10.3169,3.88465 15.4665,5.84292 22.6358,8.59135 45.1465,18.0177 68.6304,23.7024l-15.3248 37.2603c-11.2701,23.3669 -28.2154,27.8575 -51.5752,16.5921 -23.3658,-11.2784 -35.8937,-17.8299 -28.5638,-40.6181 -0.0011811,0 4.29922,-17.9079 11.3669,-42.7796z"></path>
   <path id="SvgjsPath1075" class="fil3" d="M1198.09 1304.49c24.9461,24.2953 54.0721,44.2642 80.8288,27.4878 26.7591,-16.7717 29.9799,-43.7941 13.2047,-70.5615l-132.431 -199.462c-21.2516,-33.8752 -57.1713,-23.0386 -91.0572,-1.78228 -33.8882,21.2469 -42.4099,46.2957 -21.1606,80.1768l150.615 164.141z"></path>
   <path id="SvgjsPath1074" class="fil5" d="M1007.11 1054.6c1.92756,-1.64173 149.947,4.32874 151.956,6.68032l75.3957 104.49c-26.1756,26.1851 -73.9253,81.4512 -100.103,107.621l-135.468 -116.694c-25.9205,-30.4607 -22.2437,-76.1717 8.2193,-102.097z"></path>
   <path id="SvgjsPath1073" class="fil6" d="M1140.38 1459.55c0,0 -5.70709,17.9717 -20.0303,39.0768 -4.88859,7.19764 -6.2256,19.6914 -9.29292,25.9181 -12.6106,2.73544 -16.6063,32.0811 -14.4496,37.2142 1.86969,8.59371 44.4863,17.0965 71.3327,7.64646 18.6803,-6.57284 33.8599,-0.337796 54.8682,5.89371 20.054,5.95276 45.4181,11.9043 84.2103,6.71339 38.1685,-5.10709 30.3366,-41.465 17.6977,-51.1524 -17.6858,-7.80591 -37.1693,-8.48859 -52.0276,-10.8118 -46.2532,-7.20355 -19.9453,-32.1815 -46.6772,-48.1252 -22.8225,13.1386 -42.7429,20.1803 -56.3977,16.2969 -20.7921,-5.91024 -18.3886,-28.2744 -29.2335,-28.6701z"></path>
   <path id="SvgjsPath1072" class="fil7" d="M1160.69 1550.34c-19.6583,6.92363 -46.663,5.44725 -64.2095,0.917717 1.35118,-10.5036 5.94449,-24.8386 14.5736,-26.7107 3.06733,-6.22678 4.40433,-18.7205 9.29292,-25.9181 14.3232,-21.1051 20.0303,-39.0756 20.0303,-39.0756 10.8449,0.394488 8.44135,22.7587 29.2335,28.6689 13.6547,3.88347 33.5752,-3.15827 56.3977,-16.2969 26.7319,15.9437 0.424016,40.9217 46.6772,48.1252 14.8583,2.32323 34.3418,3.00591 52.0276,10.8118 6.87756,5.27363 12.313,18.4358 9.70749,30.1713 -3.93307,1.7315 -8.60434,3.04488 -14.1165,3.78307 -44.5205,5.95158 -73.63,-0.87756 -96.645,-7.70788 -24.1087,-7.1563 -41.5288,-14.3126 -62.9693,-6.7689z"></path>
   <path id="SvgjsPath1071" class="fil8" d="M1108.53 1525.53c0.804331,-0.440552 1.64173,-0.793701 2.52992,-0.983859 3.06733,-6.22678 4.40433,-18.7205 9.29292,-25.9181 14.3232,-21.1051 20.0303,-39.0756 20.0303,-39.0756 10.8449,0.394488 8.44135,22.7587 29.2335,28.6689 13.6547,3.88347 33.5752,-3.15827 56.3977,-16.2969 26.7319,15.9437 13.6949,40.9217 59.9481,48.1252 14.8642,2.32323 21.0709,3.00591 38.7567,10.8118 1.70669,1.32284 3.32244,3.11457 4.7504,5.24056 -4.01221,2.35512 -9.10276,4.11378 -15.5197,4.97363 -38.7922,5.18741 -64.1575,-0.761812 -84.2115,-6.71339 -21.0118,-6.23504 -36.189,-12.4701 -54.8693,-5.89489 -21.802,7.66772 -54.0071,3.50788 -66.339,-2.9374z"></path>
   <path id="SvgjsPath1070" class="fil6" d="M1198.18 1511.89c-16.2945,3.06378 -37.4788,7.44922 -54.0213,3.48425 -9.68505,-2.32205 -18.0213,-7.45867 -25.5154,-13.7528 0.520867,-1.06536 1.0878,-2.0752 1.70906,-2.99528 14.3232,-21.1051 20.0303,-39.0756 20.0303,-39.0756 10.8449,0.394488 8.44135,22.7587 29.2335,28.6689 13.4114,3.81378 32.8689,-2.92087 55.1811,-15.6095 -3.43347,14.4047 -10.3417,36.215 -26.6173,39.28z"></path>
   <path id="SvgjsPath1069" class="fil9" d="M1234.74 1518.57c1.16339,2.70118 4.28859,3.94134 6.98032,2.77205l17.9953 -7.77048c2.6941,-1.16339 3.93425,-4.28268 2.77323,-6.9815 -1.16575,-2.69173 -4.28859,-3.93307 -6.98386,-2.7626l-17.9988 7.76221c-2.68465,1.16457 -3.92953,4.29685 -2.76614,6.98032z"></path>
   <path id="SvgjsPath1068" class="fil9" d="M1225.2 1504.04c1.06417,2.4626 3.92244,3.60118 6.38386,2.53465l16.4669 -7.10788c2.46614,-1.06654 3.59882,-3.93189 2.53701,-6.38741 -1.06654,-2.46142 -3.92126,-3.59764 -6.38623,-2.53701l-16.4705 7.1126c-2.46378,1.06181 -3.59882,3.91772 -2.5311,6.38504z"></path>
   <path id="SvgjsPath1067" class="fil9" d="M1216.52 1490.65c1.06536,2.46851 3.92363,3.60118 6.38977,2.54055l16.4658 -7.11378c2.46496,-1.07008 3.6,-3.92835 2.53347,-6.38741 -1.06299,-2.46024 -3.92126,-3.60236 -6.38386,-2.52874l-16.4669 7.10434c-2.46969,1.05709 -3.6,3.91772 -2.53819,6.38504z"></path>
   <path id="SvgjsPath1066" class="fil8" d="M1221.93 1483.03l11.9988 -5.17559c0,-0.00236221 -0.00236221,-0.00236221 -0.00236221,-0.00472441l-0.0165354 0.00708662c-0.870473,-0.819686 -1.80827,-1.62402 -2.81221,-2.42481l0.00590552 -0.0165354c-1.52244,-1.20236 -3.20433,-2.36811 -5.08701,-3.49134l0 -0.0011811c-0.407481,0.236221 -0.81378,0.468898 -1.21772,0.700394 -0.764174,3.20079 -1.69725,6.763 -2.8689,10.4067z"></path>
   <path id="SvgjsPath1065" class="fil13" d="M1239.62 1521.78c0.701575,0 1.41851,-0.140551 2.10591,-0.440552l17.9953 -7.77048c0.745276,-0.320079 1.38071,-0.793701 1.88622,-1.36772 0.0011811,-0.00236221 0.00590552,-0.00708662 0.00826772,-0.011811 -0.00472441,-0.00236221 -0.00826772,-0.00472441 -0.0165354,-0.00944883 1.3063,-1.49173 1.73032,-3.64134 0.895276,-5.59252 -0.034252,-0.0732284 -0.0649607,-0.145276 -0.100394,-0.21378 -0.907087,-1.87087 -2.78386,-2.98465 -4.75748,-2.98937 -0.00590552,0 -0.0106299,0 -0.0153543,0 -0.00590552,0 -0.00826772,0 -0.0129921,0 -0.661418,0 -1.33228,0.126378 -1.98189,0.389764 -0.0248032,0.00944883 -0.0472441,0.0188977 -0.0696851,0.0295276 -0.0165354,0.00708662 -0.0318898,0.0141732 -0.046063,0.0212599l-0.0011811 0 -2.61496 1.12559 -15.3827 6.63662c-2.68465,1.16457 -3.92953,4.29685 -2.76496,6.98032 0.865749,2.01142 2.81929,3.2126 4.87323,3.2126z"></path>
   <path id="SvgjsPath1064" class="fil13" d="M1229.66 1506.98c0.64252,0 1.29449,-0.12874 1.92047,-0.400394l16.4669 -7.10788c0.194882,-0.0862205 0.383859,-0.180709 0.562205,-0.288189 -0.00236221,-0.00472441 -0.00708662,-0.011811 -0.00944883,-0.0165354 2.06811,-1.23543 2.96339,-3.81024 1.98425,-6.08268 -0.00944883,-0.0165354 -0.0165354,-0.0354331 -0.0236221,-0.0519685 -0.801969,-1.79764 -2.56536,-2.87244 -4.42087,-2.88189 -0.00826772,-0.0011811 -0.0141732,0 -0.0236221,0 -0.00354331,-0.0011811 -0.00472441,0 -0.00826772,0 -0.607087,-0.0011811 -1.2248,0.115748 -1.82008,0.359055 -0.00708662,0.00236221 -0.011811,0.00472441 -0.0165354,0.00708662 -0.0236221,0.00944883 -0.0496063,0.0188977 -0.0732284,0.0307087l-0.529134 0.227953c0,0 0,0.0011811 0,0.0011811l-15.9414 6.88347c-2.46378,1.06181 -3.59882,3.91772 -2.52992,6.38504 0.79252,1.83543 2.58189,2.93504 4.46221,2.93504z"></path>
   <path id="SvgjsPath1063" class="fil13" d="M1220.98 1493.59c0.643701,0 1.29567,-0.12874 1.92402,-0.396851l16.4658 -7.11378c0.362599,-0.159449 0.701575,-0.356693 1.0063,-0.588189 -0.00590552,-0.00472441 -0.00826772,-0.00944883 -0.0129921,-0.0141732 1.74921,-1.31339 2.44725,-3.68859 1.54016,-5.78504l0 0c-0.790158,-1.8248 -2.56536,-2.92441 -4.43504,-2.9315 -0.00826772,0 -0.0141732,0 -0.022441,0 -0.00236221,0 -0.00472441,0 -0.00590552,0 -0.643701,0 -1.29449,0.131102 -1.92047,0.402756l0 -0.0011811 -1.59803 0.690945 -11.9988 5.17559 -2.87008 1.23898c-2.46969,1.05709 -3.6,3.91772 -2.53819,6.38623 0.373229,0.863386 0.968505,1.56496 1.68662,2.06575 0.811418,0.563386 1.78347,0.870473 2.77914,0.870473z"></path>
   <path id="SvgjsPath1062" class="fil3" d="M761.617 1207.56c-23.2878,-5.53347 -28.8402,7.47756 -38.2488,31.6418 -9.41457,24.176 -3.60827,40.7197 20.5654,50.1296l170.669 50.817c24.1689,9.41221 51.4028,-2.55709 60.8079,-26.7272 9.41694,-24.176 -5.35394,-37.4481 -25.1185,-54.2552 -37.6453,-32.0091 -188.674,-51.6059 -188.675,-51.6059z"></path>
   <path id="SvgjsPath1061" class="fil4" d="M723.367 1239.2c9.40985,-24.1642 14.9622,-37.174 38.2512,-31.6418 -0.0011811,0 32.2571,4.17874 70.6666,11.8465 -2.31614,7.97245 -5.01142,15.8114 -7.38426,23.3811 -6.02126,19.2496 -12.5776,38.3882 -17.5725,57.9426 -0.597638,2.30788 -1.15866,4.63583 -1.74213,6.95434l-61.6524 -18.3532c-24.1736,-9.40985 -29.9799,-25.9536 -20.5666,-50.1296z"></path>
   <path id="SvgjsPath1060" class="fil3" d="M900.905 1246.51c-13.2484,32.2205 -20.9067,66.6839 4.64764,85.2509 25.5414,18.574 51.8197,11.478 70.3843,-14.0622l138.242 -186.989c23.5193,-32.3575 9.93544,-42.9496 -22.4197,-66.4642l-1.75394 4.53898c-32.3622,-23.5217 -69.4772,-55.5863 -92.9942,-23.2382l-96.1064 200.964z"></path>
   <path id="SvgjsPath1059" class="fil9" d="M700.745 1288.29c-2.89607,0.466536 -4.86378,3.1937 -4.39489,6.08859l3.12638 19.3441c0.473622,2.90079 3.19607,4.86496 6.09567,4.3937 2.8878,-0.461811 4.85906,-3.18898 4.39252,-6.08032l-3.13229 -19.3571c-0.466536,-2.89725 -3.19016,-4.86024 -6.08741,-4.38898z"></path>
   <path id="SvgjsPath1058" class="fil9" d="M717.164 1282.59c-2.64213,0.429922 -4.44331,2.92677 -4.01221,5.57599l2.86063 17.7071c0.427559,2.6504 2.91969,4.44803 5.57245,4.01693 2.64685,-0.424016 4.45276,-2.91733 4.0252,-5.563l-2.86418 -17.7154c-0.429922,-2.65158 -2.92559,-4.44803 -5.58189,-4.02166z"></path>
   <path id="SvgjsPath1057" class="fil9" d="M732.27 1277.46c-2.64921,0.422835 -4.44567,2.92205 -4.01929,5.56772l2.86418 17.7177c0.426378,2.64331 2.92323,4.43622 5.57245,4.01457 2.64803,-0.426378 4.44803,-2.92205 4.01929,-5.57599l-2.86536 -17.7071c-0.421654,-2.64685 -2.91969,-4.43859 -5.57126,-4.01693z"></path>
   <path id="SvgjsPath1056" class="fil6" d="M647.804 1377.69c-0.0236221,0 -0.0472441,-0.00236221 -0.068504,-0.00236221 0.0212599,0 0.0448819,0.00236221 0.0696851,0.00236221l-0.0011811 0zm-0.0897638 -0.00472441c-4.2815,-0.190158 -8.62914,-1.16693 -12.5339,-3.12992 -0.728741,-4.2378 -0.846851,-9.08977 -0.214961,-14.6091 10.4858,-91.3761 57.1382,-106.977 53.0977,-151.223 -1.89685,-20.7543 6.14528,-46.5792 14.8288,-62.4756 1.85551,0.729922 3.81496,1.60394 5.77087,2.60079l-0.0507874 -0.0259843c-1.27205,-0.649607 -2.54055,-1.24488 -3.7878,-1.77756l-0.102756 -0.0507874c-3.53859,-1.52126 -6.84331,-2.57126 -9.23268,-3.01418 -0.00354331,-0.0011811 -0.00472441,0 -0.00826772,0 0,-0.0011811 0,-0.00236221 -0.0011811,-0.00236221 -0.829134,-0.152362 -1.54725,-0.231496 -2.12835,-0.231496 -0.248032,0 -0.47126,0.0141732 -0.666142,0.046063l0 -0.0011811c-0.0318898,-0.00236221 -0.0637796,-0.00236221 -0.0956694,-0.00236221l0 0c-3.33425,0 -8.04568,5.55473 -12.4807,13.9937 -7.20001,13.6831 -13.6748,34.9441 -12.378,52.3642 0.00472441,0.0448819 0.00708662,0.090945 0.00944883,0.135827 0.0188977,0.232677 0.0377953,0.464174 0.0602363,0.696851 0.0011811,0.0330709 0.00472441,0.0661418 0.00944883,0.102756 0.142913,1.58032 0.21378,3.11929 0.21378,4.62402 0.0165354,35.1532 -37.7244,50.7886 -46.4835,127.141l-0.0011811 0c-0.00472441,0.0413386 -0.00944883,0.0814961 -0.011811,0.121654 -0.00472441,0.0236221 -0.00708662,0.0472441 -0.00826772,0.068504 0,0.0141732 -0.00354331,0.0236221 -0.00354331,0.0377953 -1.91811,17.2996 4.70552,26.9752 13.6654,31.4799l0.0165354 0.00944883c3.9,1.95709 8.24056,2.93504 12.5173,3.12047zm71.954 -221.386c-0.0011811,-0.00472441 -0.00590552,-0.00708662 -0.00944883,-0.00826772l-0.00708662 -0.00826772c0.00472441,0.00472441 0.011811,0.0129921 0.0165354,0.0177165l0 -0.0011811zm-1.75158 -1.53425l-0.0259843 -0.0248032c-0.124016,-0.0992127 -0.244488,-0.198425 -0.367323,-0.296457 -0.400394,-0.317717 -0.810237,-0.630709 -1.22599,-0.935434l-0.022441 -0.0165354c0.563386,0.413386 1.11142,0.839764 1.64291,1.27323l-0.0011811 0zm-4.43504 -3.17717c-0.902363,-0.574016 -1.82717,-1.1185 -2.76496,-1.64173l-0.0720473 -0.0377953c0.961418,0.532678 1.91103,1.09488 2.83701,1.67953z"></path>
   <path id="SvgjsPath1055" class="fil17" d="M649.26 1377.72c1.05827,0 2.11063,-0.0472441 3.14528,-0.140551l0.212599 -0.0188977c0.612993,-0.0614174 1.21772,-0.129921 1.81536,-0.216142l0.403937 -0.0696851c0.52441,-0.0755906 1.04764,-0.173622 1.55669,-0.283465l0.527953 -0.108662c0.461811,-0.105118 0.914174,-0.218504 1.36654,-0.335433l0.595276 -0.161811c0.413386,-0.12874 0.820867,-0.255118 1.22362,-0.39567l0.451181 -0.146457c-1.29685,-4.46693 -1.75394,-9.8315 -1.01811,-16.2614 9.13347,-79.6182 49.787,-93.2162 46.2674,-131.764 -2.1,-23.0138 9.81851,-53.2205 19.0807,-63.6036 0.138189,0.530315 0.240945,1.0689 0.297638,1.61102 -0.0141732,-0.12874 -0.0283465,-0.256299 -0.0425197,-0.382677l-0.0720473 -0.438189c-0.0661418,-0.366142 -0.15,-0.733465 -0.251575,-1.09488l-0.116929 -0.393307c-0.152362,-0.473622 -0.337796,-0.936615 -0.558662,-1.40315l-0.141732 -0.262205c-0.194882,-0.389764 -0.408662,-0.77126 -0.636615,-1.14449l-0.274016 -0.429922c-0.240945,-0.35315 -0.497244,-0.709843 -0.766536,-1.0689l-0.227953 -0.297638c-0.351969,-0.438189 -0.726379,-0.869292 -1.12323,-1.29921l-0.317717 -0.325985c-0.318898,-0.334252 -0.646063,-0.659056 -0.987402,-0.98504 -0.00472441,-0.00590552 -0.0106299,-0.0129921 -0.0153543,-0.0177165l-0.388583 -0.351969c-0.421654,-0.382677 -0.8563,-0.762993 -1.31102,-1.13268l-0.0366142 -0.0330709c-0.530315,-0.433465 -1.07717,-0.858662 -1.64173,-1.27323l-0.354331 -0.252756c-0.438189,-0.314173 -0.879922,-0.622441 -1.32992,-0.927166l-0.357874 -0.236221c-0.249213,-0.164173 -0.499607,-0.325985 -0.751182,-0.487796 -0.925985,-0.584646 -1.87559,-1.14685 -2.83701,-1.67953l-0.240945 -0.131102c-0.561024,-0.307087 -1.12205,-0.616536 -1.6937,-0.900001l-0.0472441 -0.0283465c-1.95709,-0.996851 -3.91536,-1.86969 -5.77087,-2.60079 -8.68465,15.8965 -16.7256,41.7225 -14.8288,62.4756 4.04055,44.2453 -42.6118,59.8465 -53.0977,151.223 -0.633071,5.5193 -0.51378,10.3713 0.214961,14.6091 3.90473,1.96299 8.25237,2.93977 12.5339,3.12992 0.00708662,0 0.0141732,0.00236221 0.0212599,0.00236221 0.0212599,0 0.0448819,0.00236221 0.0696851,0.00236221 0.484252,0.0188977 0.970867,0.0307087 1.45394,0.0307087zm12.9071 -2.5063l0.0236221 -0.00944883c0.0614174,-0.0259843 0.124016,-0.0543308 0.186614,-0.080315l0.0188977 -0.00944883c-0.0767717,0.0330709 -0.152362,0.0661418 -0.229134,0.0992127l0 0zm1.78228 -0.853938l0.0472441 -0.0236221c0.0531496,-0.0283465 0.106299,-0.0555119 0.155906,-0.0838583 0.0354331,-0.0212599 0.0708662,-0.0401575 0.10748,-0.0614174 -0.102756,0.056693 -0.205512,0.114567 -0.31063,0.168898l0 0zm1.95236 -1.18347c0.0377953,-0.0236221 0.0755906,-0.0496063 0.112205,-0.0755906 0.270473,-0.187795 0.529134,-0.382677 0.779528,-0.579922 -0.283465,0.223229 -0.579922,0.444095 -0.891733,0.655512zm59.3245 -206.263l0 0c0.00236221,-0.109843 0.00472441,-0.220866 0.00236221,-0.330709 0.00236221,0.108662 0,0.220866 -0.00236221,0.330709z"></path>
   <path id="SvgjsPath1054" class="fil7" d="M660.558 1375.84l0 0 0.21378 -0.0850394c0.361418,-0.12874 0.709843,-0.266929 1.05945,-0.416929l0.335433 -0.12874c0.0755906,-0.0330709 0.153543,-0.0661418 0.229134,-0.0992127l0.0661418 -0.034252c0.347244,-0.151181 0.670867,-0.32126 1.0063,-0.48189l0.480709 -0.238583c0.105118,-0.0555119 0.207874,-0.112205 0.31063,-0.168898 0.265748,-0.152362 0.518504,-0.307087 0.770079,-0.461811l0.46063 -0.283465c0.13937,-0.0874016 0.277559,-0.175984 0.411024,-0.269292 0.311811,-0.211417 0.608268,-0.432284 0.891733,-0.655512l0 0c11.9032,-15.2386 14.0882,-21.0803 19.9784,-34.9335l0 0c0.587008,-1.38662 1.17992,-2.71063 1.7752,-3.97087 0.00236221,-0.00590552 0.00472441,-0.00826772 0.00708662,-0.0129921 0.00944883,-0.0259843 0.022441,-0.0496063 0.0330709,-0.0732284 3.81024,-8.06339 7.73741,-13.6476 11.7567,-17.641 -0.431103,-0.628347 -0.735827,-1.35945 -0.86693,-2.16142l-3.12756 -19.3453c-0.467717,-2.8937 1.5,-5.62087 4.39607,-6.08623 0.288189,-0.0484252 0.576378,-0.0696851 0.859843,-0.0696851 2.55709,0 4.80945,1.85197 5.22874,4.45748l2.67402 16.5343c2.19213,-1.12087 4.40552,-1.98898 6.64252,-2.73425 -0.0578741,-0.198425 -0.105118,-0.402756 -0.138189,-0.611811l-2.86181 -17.7083c-0.429922,-2.64803 1.37126,-5.1437 4.01339,-5.57481 0.261024,-0.0437008 0.523229,-0.0625985 0.780709,-0.0625985 2.34921,0 4.41378,1.69488 4.80237,4.08426l2.76969 17.1437 0.00236221 0 0 -0.00236221c1.95354,-0.557481 3.93189,-1.16929 5.91142,-1.9063 -0.145276,-0.344882 -0.250394,-0.715749 -0.314173,-1.10197l-2.86536 -17.7177c-0.276378,-1.71732 0.382677,-3.37323 1.6063,-4.43977 -7.96536,-6.43347 -14.2713,-14.5146 -13.6807,-24.1146 1.01811,-16.5343 1.94646,-38.1555 9.84213,-53.2229 4.61693,-8.81812 11.6398,-15.6496 19.5744,-21.3732 0.905906,0.764174 1.74803,1.56614 2.48622,2.38937 -5.78032,-6.49961 -17.5642,-10.8567 -22.8532,-15.352l0 0c0.00236221,-0.109843 0.00472441,-0.220866 0.00236221,-0.330709 -0.00236221,-0.255118 -0.0188977,-0.506693 -0.0425197,-0.757087 -0.056693,-0.542126 -0.159449,-1.08071 -0.297638,-1.61102 -9.26221,10.3831 -21.1795,40.5898 -19.0807,63.6036 3.51969,38.5477 -37.1339,52.1457 -46.2674,131.764 -0.735827,6.42993 -0.27874,11.7945 1.01811,16.2614l0 -0.00354331 0 0.00472441zm79.8674 -78.3981c2.54882,-1.62165 5.10237,-3.62481 7.67953,-6.20197l0 -0.0011811c-0.0519685,-0.167717 -0.0980316,-0.338977 -0.144095,-0.514961 -0.0791339,-0.282284 -0.158268,-0.559843 -0.233858,-0.840946 -2.91614,-1.52008 -6.14056,-3.29764 -9.38623,-5.32323l2.08465 12.8823z"></path>
   <path id="SvgjsPath1053" class="fil8" d="M747.735 1289.89c-6.82914,-24.724 -8.60434,-45.2504 -1.62402,-57.3166 10.8201,-18.7075 31.9193,-10.9016 34.9488,-21.3272l0 0c0,0 -2.12717,-1.31811 -5.64922,-3.91536 -5.46496,-4.02638 -14.2925,-11.1319 -23.7697,-21.1819 -0.00236221,-0.00236221 -0.00944883,-0.00944883 -0.0106299,-0.011811 -0.0307087,-0.0283465 -0.0555119,-0.056693 -0.0838583,-0.0885827 -0.00472441,-0.00708662 -0.00944883,-0.011811 -0.0177165,-0.0188977 -0.0236221,-0.0236221 -0.0448819,-0.0472441 -0.068504,-0.0732284 -0.00944883,-0.00944883 -0.0188977,-0.0188977 -0.0283465,-0.0283465 -0.022441,-0.0236221 -0.0425197,-0.046063 -0.0649607,-0.0696851 -0.0212599,-0.0236221 -0.0448819,-0.0472441 -0.0661418,-0.0708662 -0.0141732,-0.0153543 -0.0259843,-0.0283465 -0.0401575,-0.0425197 -0.022441,-0.0212599 -0.0425197,-0.0448819 -0.0649607,-0.0673229 -0.00472441,-0.00708662 -0.0106299,-0.0141732 -0.0153543,-0.0212599 -0.0248032,-0.0236221 -0.046063,-0.0448819 -0.0673229,-0.068504 -0.00472441,-0.00826772 -0.00944883,-0.0129921 -0.0165354,-0.0188977 -0.102756,-0.109843 -0.204331,-0.219685 -0.307087,-0.328347l0 -0.0011811c-0.79252,-0.851575 -1.58504,-1.71969 -2.38229,-2.6126 -0.00472441,-0.00236221 -0.00708662,-0.00472441 -0.00944883,-0.00944883 -0.0188977,-0.0212599 -0.0401575,-0.0448819 -0.0614174,-0.0673229 -0.0106299,-0.011811 -0.0188977,-0.0200788 -0.0283465,-0.0318898 -0.0200788,-0.022441 -0.0366142,-0.0413386 -0.0531496,-0.0602363 -0.0141732,-0.0165354 -0.0283465,-0.0330709 -0.0425197,-0.0472441 -0.0141732,-0.0177165 -0.0307087,-0.0366142 -0.0448819,-0.0519685 -0.0307087,-0.0318898 -0.0578741,-0.0649607 -0.0885827,-0.0956694l-0.0011811 0c-0.737008,-0.823229 -1.57914,-1.6252 -2.48504,-2.38937 -7.93465,5.72245 -14.9575,12.5551 -19.5744,21.3732 -7.89568,15.0673 -8.82402,36.6886 -9.84213,53.2229 -0.590552,9.60001 5.71654,17.6823 13.6807,24.1146 0.661418,-0.576378 1.48465,-0.980316 2.41299,-1.12795 0.259843,-0.0437008 0.518504,-0.0625985 0.773623,-0.0625985 2.34567,0 4.41733,1.69252 4.79764,4.07953l0.499607 3.08859c3.24567,2.02559 6.47008,3.80315 9.38623,5.32323l-0.0011811 0c0.00354331,0.00236221 0.00590552,0.00236221 0.00944883,0.00472441z"></path>
   <path id="SvgjsPath1052" class="fil13" d="M704.719 1318.19c0.0944883,0 0.193701,-0.00236221 0.290551,-0.00708662 0.00708662,0 0.0141732,0 0.0212599,0 0.00236221,-0.00236221 0.00236221,-0.00236221 0.00236221,-0.00236221 0.178347,-0.00944883 0.356693,-0.0283465 0.538583,-0.0590552 2.60433,-0.416929 4.46693,-2.67992 4.46103,-5.24056 -0.00236221,-0.27874 -0.0236221,-0.559843 -0.068504,-0.839764l0 0 -0.457087 -2.82284 -2.6752 -16.5343c-0.418111,-2.60551 -2.67047,-4.45748 -5.22756,-4.45748 -0.283465,0 -0.571654,0.0212599 -0.859843,0.0696851 -2.89607,0.465355 -4.86378,3.19252 -4.39489,6.08741l3.12638 19.3441c0.131102,0.801969 0.435827,1.53307 0.86693,2.16142 0.00472441,0.00708662 0.00944883,0.0141732 0.0141732,0.0212599 0.0011811,-0.00472441 0.00472441,-0.00708662 0.00708662,-0.00944883 0.975591,1.40079 2.58898,2.28898 4.35473,2.28898z"></path>
   <path id="SvgjsPath1051" class="fil13" d="M720.807 1309.95c0.253937,0 0.516142,-0.022441 0.777166,-0.0649607l0 0c2.38701,-0.383859 4.09134,-2.45079 4.08662,-4.79528 0,-0.253937 -0.0212599,-0.511418 -0.0614174,-0.767717l0 0 -0.0933072 -0.571654 -2.77087 -17.1437c-0.387402,-2.38937 -2.45197,-4.08426 -4.80118,-4.08426 -0.257481,0 -0.518504,0.0188977 -0.780709,0.0625985 -2.64213,0.429922 -4.44331,2.92677 -4.01221,5.57599l2.86063 17.7071c0.0330709,0.209055 0.080315,0.414567 0.138189,0.611811 0.0011811,0 0.0011811,0 0.0011811,0.00236221 0.00472441,-0.00236221 0.0129921,-0.00472441 0.0200788,-0.00708662 0.614174,2.06103 2.5004,3.47481 4.63583,3.47481z"></path>
   <path id="SvgjsPath1050" class="fil13" d="M735.912 1304.82c0.257481,0 0.514961,-0.0200788 0.774804,-0.0614174 2.38937,-0.382677 4.0878,-2.45551 4.08189,-4.80473 0,-0.255118 -0.022441,-0.511418 -0.0625985,-0.77126l-0.281103 -1.73622 -2.08465 -12.8823 -0.499607 -3.08859c-0.381496,-2.38819 -2.45079,-4.07953 -4.79764,-4.07953 -0.255118,0 -0.51378,0.0200788 -0.773623,0.0625985 -0.928347,0.147638 -1.7504,0.551575 -2.41299,1.12795 -1.22362,1.06536 -1.88268,2.72244 -1.6063,4.43977l2.86418 17.7177c0.0649607,0.386221 0.170079,0.757087 0.315355,1.10197 0.00708662,-0.00236221 0.011811,-0.00472441 0.0165354,-0.00472441 0.725197,1.71614 2.37047,2.88189 4.23307,2.97402 0.00472441,0 0.00944883,0 0.0153543,0 0.00236221,0 0.00472441,0 0.00708662,0 0.068504,0.00354331 0.13937,0.00590552 0.210236,0.00472441z"></path>
   <path id="SvgjsPath1049" class="fil18" d="M1030.03 752.757c-2.5311,26.0847 24.8055,32.0918 55.3087,35.054 30.5138,2.96575 37.924,33.2811 40.4563,7.20119 0,0 8.63859,-80.0528 10.8213,-157.308 0.739371,-26.1957 -1.60512,-44.1697 -32.1083,-47.1331 -30.5114,-2.96339 -66.1264,12.6555 -66.1264,38.8618 -0.0011811,88.7457 -8.3504,123.324 -8.35158,123.324z"></path>
   <path id="SvgjsPath1048" class="fil3" d="M1038.48 650.92c-2.69646,25.3205 48.9567,73.3536 89.0009,74.3942l8.86654 -0.311811c40.0453,1.03937 73.3548,-30.5776 74.3942,-70.6241l2.09882 -80.654c5.65748,-81.2434 -30.5717,-73.3524 -70.6193,-74.3953l-27.2528 0.316536c-40.0406,-1.04528 -73.3465,30.5729 -74.3942,70.6217l-2.0941 80.6528z"></path>
   <path id="SvgjsPath1047" class="fil6" d="M1038.73 641.109c-71.693,-146.004 32.5855,-184.52 82.5072,-175.99 151.761,6.31182 86.1473,68.2418 90.9461,73.7859 -147.506,-30.2209 -118.022,58.6997 -145.301,60.913 -27.2894,2.21339 -9.11221,31.7008 -28.1528,41.2914z"></path>
   <path id="SvgjsPath1046" class="fil3" d="M1029.31 612.321c0,13.4268 10.878,24.3071 24.3,24.3071 13.4232,0 24.3071,-10.8803 24.3071,-24.3071 -0.0011811,-13.4221 -10.8827,-24.3024 -24.3071,-24.3024 -13.4221,0 -24.3,10.8803 -24.3,24.3024z"></path>
   <path id="SvgjsPath1045" class="fil3" d="M868.987 808.078c-25.4292,10.8425 -37.2603,40.239 -26.4177,65.6693 10.8378,25.428 37.0299,14.9091 62.465,4.07008l170.307 -49.017c25.4256,-10.8378 37.2532,-40.2414 26.4118,-65.6693 -10.8402,-25.428 -40.2449,-37.252 -65.6658,-26.4154l-167.1 71.3623z"></path>
   <path id="SvgjsPath1044" class="fil21" d="M986.724 757.796l49.363 -21.0803c25.4209,-10.8378 54.8256,0.987402 65.6658,26.4154 10.8413,25.428 -0.986221,54.8327 -26.4107,65.6705l-89.1367 26.7437 0.518504 -97.7493z"></path>
   <path id="SvgjsPath1043" class="fil3" d="M858.8 1004.84c0.794883,18.4417 13.0925,21.9402 31.5343,21.1394 18.4335,-0.787796 24.7229,1.13268 23.928,-17.3032l-1.78701 -159.323c-1.07126,-24.7571 -6.91536,-43.1363 -31.6819,-42.0626 -24.7642,1.07008 -43.0831,16.1043 -42.8977,46.7717 0.223229,38.0138 20.9043,150.777 20.9043,150.777z"></path>
   <path id="SvgjsPath1042" class="fil3" d="M918.308 1035.46c-4.29567,1.32756 -6.69804,5.88308 -5.36811,10.1811l8.5004 28.8378c1.32756,4.28859 5.89016,6.69213 10.1764,5.37166 4.29567,-1.33583 6.70158,-5.8878 5.37756,-10.1823l-8.50276 -28.8366c-1.32992,-4.29803 -5.88544,-6.69686 -10.1835,-5.37166z"></path>
   <path id="SvgjsPath1041" class="fil3" d="M867.216 1044.33c-4.4067,1.36299 -6.87875,6.04252 -5.51693,10.4445l8.71418 29.5051c1.36181,4.4067 6.0378,6.87166 10.4386,5.51103 4.41142,-1.36181 6.88111,-6.04489 5.51811,-10.4516l-8.70827 -29.4921c-1.36536,-4.40788 -6.03898,-6.87993 -10.4457,-5.51693z"></path>
   <path id="SvgjsPath1040" class="fil3" d="M902.153 1040.45c-4.62638,1.42913 -7.22363,6.33662 -5.79331,10.9642l9.12166 30.8303c1.43032,4.62638 6.34489,7.20827 10.9689,5.78741 4.63111,-1.43032 7.22008,-6.33544 5.79449,-10.9701l-9.1193 -30.8256c-1.43268,-4.62874 -6.34134,-7.22717 -10.9724,-5.78622z"></path>
   <path id="SvgjsPath1039" class="fil3" d="M884.896 1044.03c-4.62756,1.42795 -7.22363,6.34016 -5.78859,10.9689l9.11694 30.8197c1.43032,4.62638 6.34371,7.22245 10.9701,5.78977 4.62874,-1.42795 7.22481,-6.33426 5.78977,-10.9654l-9.11457 -30.828c-1.43268,-4.62874 -6.34134,-7.22008 -10.9736,-5.78504z"></path>
   <path id="SvgjsPath1038" class="fil3" d="M930.571 1051.64c0,0 2.66103,-13.7386 2.24646,-18.3461 -2.5063,-28.2272 -34.9654,-41.4083 -52.7563,-35.9126 -26.6492,8.24056 -25.8685,35.1945 -20.3669,52.9973l4.48347 12.3626 66.3934 -11.1012z"></path>
   <path id="SvgjsPath1037" class="fil22" d="M909.298 1066.64c2.90433,0 5.25,-2.34331 5.25,-5.24174 -0.0011811,-0.440552 -0.0543308,-0.869292 -0.159449,-1.27559 -2.49685,0.565748 -5.05276,0.839764 -7.61457,0.839764 -0.895276,0 -1.79528,-0.0330709 -2.68937,-0.100394 -0.0165354,0.175984 -0.0259843,0.355512 -0.0259843,0.536221 0,2.89843 2.34567,5.24174 5.23937,5.24174z"></path>
   <path id="SvgjsPath1036" class="fil22" d="M925.185 1061.74c0.820867,0 1.65709,-0.191339 2.43543,-0.598819 2.56772,-1.34291 3.55512,-4.51418 2.21103,-7.0819 -0.275197,-0.527953 -0.630709,-0.992127 -1.04528,-1.37835 -0.869292,0.87756 -1.8378,1.65827 -2.85355,2.35394 -1.19764,0.853938 -2.47677,1.57087 -3.78189,2.23701 -0.644882,0.308268 -1.2815,0.62126 -1.9311,0.916536 0.0874016,0.251575 0.19252,0.501969 0.315355,0.744095 0.937796,1.78701 2.76142,2.80866 4.65,2.80748z"></path>
   <path id="SvgjsPath1035" class="fil23" d="M931.176 1048.3c-0.236221,1.43976 -1.24961,2.56536 -2.25118,3.52677 -1.04764,0.955513 -2.2252,1.76339 -3.47008,2.45079 -1.23307,0.7063 -2.52992,1.29685 -3.82205,1.88977 -1.31575,0.539764 -2.64095,1.10669 -3.98268,1.48465 -2.68819,0.804331 -5.50748,1.18819 -8.31497,1.32284 -2.80866,0.140551 -5.64095,-0.0141732 -8.37757,-0.553937 -2.70591,-0.551575 -5.43308,-1.43976 -7.48111,-3.04607 -1.03347,-0.775985 -1.84016,-1.74685 -2.20394,-2.85591 -0.0625985,-0.281103 -0.166536,-0.5563 -0.175984,-0.851575l-0.0389764 -0.390945 0.0141732 -0.542126c0.0401575,-0.478347 0.20315,-1.09724 0.485433,-1.55906 0.564567,-0.977954 1.6311,-1.70315 2.84646,-2.16496 1.21772,-0.466536 2.57717,-0.694489 3.9437,-0.785434 2.73898,-0.17126 5.57835,0.109843 8.25237,0.90945l0.0165354 0.00472441c0.382677,0.113386 0.788977,-0.102756 0.900001,-0.485433 0.0933072,-0.314173 -0.0377953,-0.64252 -0.302362,-0.814961 -0.485433,-0.309449 -1.01575,-0.770079 -1.47992,-1.2248 -0.459449,-0.479528 -0.907087,-0.975591 -1.2874,-1.52835 -0.773623,-1.09252 -1.41378,-2.28662 -1.89449,-3.56221 -0.194882,-0.649607 -0.437008,-1.29449 -0.551575,-1.97008 -0.164173,-0.668504 -0.245669,-1.35118 -0.314173,-2.03977 -0.131102,-1.37835 -0.102756,-2.77205 0,-4.17402 -0.271654,1.37362 -0.50315,2.77441 -0.480709,4.19292 0.00590552,0.711024 0.0236221,1.42559 0.127559,2.13189 0.0531496,0.715749 0.240945,1.41142 0.388583,2.1189 0.206693,0.688583 0.408662,1.3878 0.7063,2.05158 0.276378,0.667323 0.625985,1.31575 1.02165,1.9252 0.382677,0.624804 0.839764,1.20118 1.32047,1.75984 0.506693,0.550394 1.00158,1.05236 1.6689,1.5378l0.615355 -1.29567c-2.80984,-0.989765 -5.78504,-1.5378 -8.80985,-1.42677 -1.50945,0.0732284 -3.03662,0.290551 -4.52835,0.823229 -1.47047,0.532678 -2.98937,1.43504 -3.92363,2.96575 -0.464174,0.772442 -0.728741,1.57559 -0.816142,2.5311l-0.022441 0.538583c0.00236221,0.307087 0.022441,0.457087 0.0354331,0.689764 0.0165354,0.42874 0.144095,0.850394 0.243307,1.2685 0.511418,1.66536 1.63228,3.00827 2.8937,3.96969 2.56772,1.91339 5.53819,2.76024 8.45552,3.31299 5.87245,1.00039 11.9339,0.603544 17.5335,-1.39488 1.41614,-0.487796 2.71654,-1.13268 4.03583,-1.76811 1.30394,-0.666142 2.58544,-1.38307 3.78189,-2.23701 1.20945,-0.827953 2.35158,-1.77284 3.33898,-2.86536 0.96378,-1.07599 1.85433,-2.40118 1.90394,-3.86929z"></path>
   <path id="SvgjsPath1034" class="fil23" d="M883.461 1067.06c0,0 0.0507874,-0.666142 -0.0200788,-1.83543 -0.100394,-1.15984 -0.222047,-2.84764 -0.773623,-4.81772 -0.257481,-0.986221 -0.64252,-2.04213 -1.17047,-3.12047 -0.56693,-1.05236 -1.23307,-2.19095 -2.2878,-3.11339 -0.980316,-0.969686 -2.37047,-1.6937 -3.84567,-1.95827l-1.12323 -0.125197c-0.516142,-0.0389764 -0.708662,0.0188977 -1.07717,0.0236221 -0.616536,-0.0106299 -1.42795,0.168898 -2.17559,0.31063 -1.4374,0.421654 -2.80866,1.19528 -3.84567,2.2878 -1.08543,1.07008 -1.63937,2.46969 -2.01851,3.75473 -0.389764,1.31102 -0.412205,2.60433 -0.394488,3.7937 0.0377953,1.1941 0.204331,2.29843 0.427559,3.2941 0.421654,1.99843 1.08543,3.55276 1.5189,4.62992 0.485433,1.06654 0.790158,1.65709 0.790158,1.65709 0,0 -0.121654,-0.661418 -0.379134,-1.78701 -0.249213,-1.12323 -0.51378,-2.75551 -0.673229,-4.68426 -0.0779528,-0.966142 -0.0897638,-2.00551 -0.0330709,-3.08386 0.0897638,-1.07362 0.236221,-2.20158 0.609449,-3.25512 0.366142,-1.05236 0.895276,-2.0752 1.68898,-2.83701 0.775985,-0.778347 1.7811,-1.32047 2.88544,-1.63228 0.986221,-0.250394 2.45788,-0.426378 3.44528,-0.240945 1.06536,0.191339 2.10354,0.576378 2.92441,1.32165 1.71851,1.3748 2.76851,3.43583 3.53977,5.18032 0.751182,1.77992 1.26024,3.35551 1.5437,4.46929 0.3,1.11614 0.445276,1.76811 0.444095,1.76811z"></path>
   <path id="SvgjsPath1033" class="fil23" d="M886.74 1079.46c0,0 -0.349607,-1.82126 -0.870473,-4.55552 -0.512599,-2.70355 -1.23071,-6.28937 -1.48228,-9.83741 -0.0874016,-0.890552 -0.105118,-1.77165 -0.0956694,-2.63032 0.0543308,-0.851575 0.0590552,-1.69843 0.219685,-2.47677 0.251575,-1.58032 0.826772,-2.92323 1.67244,-3.82914 0.407481,-0.464174 0.875198,-0.825591 1.33465,-1.08307 0.447638,-0.297638 0.904725,-0.429922 1.26614,-0.6 0.775985,-0.232677 1.2189,-0.368504 1.2189,-0.368504 -0.0011811,0 -0.459449,-0.056693 -1.30158,-0.0637796 -0.412205,0.056693 -0.94252,0.0448819 -1.51417,0.251575 -0.581103,0.152362 -1.24016,0.435827 -1.84606,0.90945 -1.2815,0.894095 -2.28543,2.54882 -2.73071,4.35709 -0.506693,1.81536 -0.551575,3.78425 -0.429922,5.69056 0.292914,3.82796 1.41614,7.44804 2.47677,10.0453 1.05236,2.60433 2.08229,4.19055 2.08229,4.19055z"></path>
   <path id="SvgjsPath1032" class="fil23" d="M904.39 1078.63c0,0 0.253937,-1.33465 0.246851,-3.3189 0.00944883,-1.9878 -0.225591,-4.62638 -0.844489,-7.213 -0.337796,-1.28504 -0.694489,-2.57362 -1.19764,-3.73229 -0.466536,-1.16811 -1.02047,-2.22756 -1.6252,-3.06024 -0.263386,-0.433465 -0.574016,-0.794883 -0.868111,-1.09724 -0.27874,-0.311811 -0.523229,-0.572835 -0.780709,-0.744095 -0.485433,-0.360236 -0.761812,-0.533859 -0.761812,-0.533859 0,0 0.152362,0.295276 0.421654,0.811418 0.253937,0.504331 0.570473,1.23543 0.861024,2.14252 0.607087,1.79173 1.21654,4.24252 1.80118,6.72756 0.604725,2.47677 1.2,4.9878 1.74213,6.87284 0.523229,1.88386 1.00512,3.14528 1.00512,3.14528z"></path>
   <path id="SvgjsPath1031" class="fil23" d="M921.514 1074.61c0,0 0.113386,-1.09724 -0.0141732,-2.67638 -0.114567,-1.58386 -0.452363,-3.65079 -1.00748,-5.6693 -0.56693,-2.0126 -1.31575,-3.97559 -2.11536,-5.38701 -0.71693,-1.43622 -1.63228,-2.20748 -1.57795,-2.19449 0,0 0.0354331,0.270473 0.100394,0.747638 0.0897638,0.444095 0.164173,1.08189 0.277559,1.86732 0.126378,0.764174 0.276378,1.65591 0.477166,2.60551 0.194882,0.949607 0.453544,1.94882 0.708662,2.95158 0.561024,1.98662 1.25669,3.95079 1.91103,5.38701 0.634252,1.44449 1.24016,2.36811 1.24016,2.36811z"></path>
   <path id="SvgjsPath1030" class="fil22" d="M892.042 1069.01c2.89607,0 5.25473,-2.3563 5.25473,-5.25237 0,-2.89134 -2.35866,-5.23937 -5.25473,-5.23937 -2.8937,-0.0011811 -5.24646,2.34803 -5.24646,5.23937 0,2.89607 2.35276,5.25237 5.24646,5.25237z"></path>
   <path id="SvgjsPath1029" class="fil24" d="M878.385 1090.17c0.00236221,0 0.00236221,0 0.00472441,0 0.81378,-0.00236221 1.64528,-0.120473 2.46142,-0.375591l0 0c0.446457,-0.138189 0.870473,-0.309449 1.27559,-0.509056 0.00590552,-0.00472441 0.0141732,-0.00708662 0.0200788,-0.011811 0.00472441,-0.00236221 0.0129921,-0.00472441 0.0177165,-0.00708662 3.36024,-1.70197 5.16378,-5.50394 4.34055,-9.24568l0.122835 0.419292c0,-0.00354331 0,-0.00354331 0,-0.00354331l-0.720473 -2.4437c-0.361418,-0.694489 -0.804331,-1.61221 -1.24961,-2.71654 -1.04055,-2.54528 -2.13898,-6.06851 -2.45788,-9.81497l-1.61811 -5.46615 -1.56614 0.263386c0.696851,0.990946 1.10669,2.19685 1.10669,3.49843 0,3.36733 -2.72481,6.09095 -6.08741,6.09095 -3.36142,-0.0011811 -6.09213,-2.72362 -6.09213,-6.09095 0,-0.584646 0.0838583,-1.15158 0.237402,-1.68662l-1.80591 0.301181c-0.0531496,1.04764 -0.0377953,2.05748 0.0377953,2.99646 0.159449,1.92874 0.424016,3.56103 0.673229,4.68426 0.257481,1.12559 0.379134,1.78701 0.379134,1.78701 0,0 -0.304725,-0.590552 -0.790158,-1.65709 -0.433465,-1.07717 -1.09724,-2.6315 -1.5189,-4.62992 -0.199606,-0.88819 -0.35315,-1.86142 -0.411024,-2.90906l-0.56693 0.0956694 -0.680315 -1.87795 6.91536 23.4225c1.10197,3.57166 4.38426,5.86772 7.92993,5.88662 0.0141732,0 0.0283465,0 0.0425197,0z"></path>
   <path id="SvgjsPath1028" class="fil24" d="M888.224 1085.82l-3.47362 -26.5252 -0.113386 0.0188977c-0.0472441,0.210236 -0.090945,0.426378 -0.125197,0.648426 -0.16063,0.777166 -0.165354,1.6252 -0.219685,2.47677 -0.00944883,0.858662 0.00944883,1.73977 0.0956694,2.63032 0.251575,3.54803 0.969686,7.13386 1.48228,9.83741 0.520867,2.73425 0.870473,4.55552 0.870473,4.55552 0,0 -0.34252,-0.526772 -0.832678,-1.47402l0.720473 2.4437 1.59567 5.38819zm-6.02363 -20.3646c-0.00708662,-0.0755906 -0.0141732,-0.153543 -0.0188977,-0.229134 -0.0578741,-0.890552 -0.0767717,-1.79528 -0.0307087,-2.68937 -0.200788,-0.543308 -0.426378,-1.12087 -0.677953,-1.72087 -0.132284,-0.292914 -0.266929,-0.597638 -0.416929,-0.904725l-0.473622 0.0791339 1.61811 5.46496zm0.32126 -5.57481c0.0165354,-0.0767717 0.0354331,-0.15 0.056693,-0.223229l-0.119291 0.0212599c0.022441,0.0661418 0.0413386,0.133465 0.0625985,0.201969z"></path>
   <path id="SvgjsPath1027" class="fil25" d="M867.465 1071.84c0,0 -0.121654,-0.661418 -0.379134,-1.78701 -0.249213,-1.12323 -0.51378,-2.75551 -0.673229,-4.68426 -0.0767717,-0.940158 -0.0897638,-1.94882 -0.0377953,-2.99528 0.00236221,-0.0307087 0.00472441,-0.0590552 0.00472441,-0.0885827 0.0897638,-1.07362 0.236221,-2.20158 0.609449,-3.25512 0.366142,-1.05236 0.895276,-2.0752 1.68898,-2.83701 0.775985,-0.778347 1.7811,-1.32047 2.88544,-1.63228 0.701575,-0.178347 1.6441,-0.318898 2.48622,-0.318898 0.344882,0 0.673229,0.0236221 0.959056,0.0779528 1.06536,0.191339 2.10354,0.576378 2.92441,1.32165 1.42795,1.14213 2.3941,2.76024 3.12284,4.27559 0.15,0.307087 0.285827,0.611811 0.416929,0.904725 0.251575,0.6 0.478347,1.17756 0.677953,1.72087 0.0448819,-0.902363 0.158268,-1.7941 0.370866,-2.6563 -0.0212599,-0.0696851 -0.0401575,-0.135827 -0.0614174,-0.201969 -0.243307,-0.773623 -0.562205,-1.58032 -0.96378,-2.39882 -0.56693,-1.05236 -1.23307,-2.19095 -2.2878,-3.11339 -0.980316,-0.969686 -2.37047,-1.6937 -3.84567,-1.95827l-1.12323 -0.125197c-0.12874,-0.00944883 -0.237402,-0.0129921 -0.335433,-0.0129921 -0.288189,0 -0.466536,0.034252 -0.741733,0.0366142 -0.0177165,0 -0.0318898,0 -0.046063,0 -0.611811,0 -1.39961,0.173622 -2.12953,0.31063 -1.4374,0.421654 -2.80866,1.19528 -3.84567,2.2878 -1.08543,1.07008 -1.63937,2.46969 -2.01851,3.75473 -0.389764,1.31102 -0.412205,2.60433 -0.394488,3.7937 0.00472441,0.129921 0.00944883,0.259843 0.0165354,0.38504 0.056693,1.04764 0.211417,2.02087 0.411024,2.90906 0.421654,1.99843 1.08543,3.55276 1.5189,4.62992 0.485433,1.06654 0.790158,1.65709 0.790158,1.65709z"></path>
   <path id="SvgjsPath1026" class="fil25" d="M886.74 1079.46c0,0 -0.349607,-1.82126 -0.870473,-4.55552 -0.512599,-2.70355 -1.23071,-6.28937 -1.48228,-9.83741 -0.0874016,-0.890552 -0.105118,-1.77165 -0.0956694,-2.63032 0.0543308,-0.851575 0.0590552,-1.69843 0.219685,-2.47677 0.034252,-0.222047 0.0779528,-0.438189 0.125197,-0.647245 0.0236221,-0.108662 0.0472441,-0.212599 0.0755906,-0.314173l-0.380315 -2.90079c-0.79252,0.915355 -1.40197,2.13425 -1.72087,3.43583 -0.011811,0.0401575 -0.0236221,0.0814961 -0.0330709,0.121654 -0.0212599,0.0732284 -0.0401575,0.147638 -0.056693,0.223229 -0.212599,0.861024 -0.325985,1.75512 -0.370866,2.6563 -0.046063,0.894095 -0.0271654,1.79882 0.0307087,2.68937 0.00354331,0.0755906 0.011811,0.154725 0.0188977,0.230315 0.318898,3.74646 1.41851,7.26969 2.45788,9.81497 0.445276,1.10315 0.88819,2.02205 1.24961,2.71654 0.490158,0.947245 0.832678,1.47402 0.832678,1.47402z"></path>
   <path id="SvgjsPath1025" class="fil26" d="M874.035 1069.84c3.3626,0 6.08741,-2.72244 6.08741,-6.08977 0,-1.30158 -0.409843,-2.50748 -1.10669,-3.49843l-10.8354 1.81181c-0.154725,0.53504 -0.237402,1.10197 -0.237402,1.68662 0,3.36733 2.73189,6.09095 6.09213,6.08977z"></path>
   <path id="SvgjsPath1024" class="fil26" d="M868.181 1062.07l10.8354 -1.81181c-1.10197,-1.56614 -2.92205,-2.58898 -4.98071,-2.58898 -2.77441,0 -5.12126,1.86142 -5.85473,4.40079z"></path>
   <path id="SvgjsPath1023" class="fil27" d="M996.931 1022.7c-3.51969,-0.597638 -7.03938,-1.19528 -10.5638,-1.79173 5.49213,-39.6827 44.7697,-303.179 49.1729,-311.077 1.05827,-4.11496 15.3992,26.0232 94.7717,36.3366 22.0843,22.5957 36.3248,49.1977 45.8504,83.8135 11.1969,40.6866 -9.64725,212.277 -10.598,221.661 -62.1603,-8.47678 -104.432,-18.0225 -168.633,-28.9429z"></path>
   <path id="SvgjsPath1022" class="fil28" d="M928.88 1186.09l45.6 -127.303 0.0366142 -0.103937c5.38701,-15.0449 10.2331,-30.0307 13.0984,-46.578 8.63741,2.27126 18.1961,4.96536 26.8406,7.22245 34.324,8.96221 68.7733,17.387 103.153,26.1402 19.1906,4.88859 27.9,8.81457 47.4024,12.3059 -1.16811,13.4032 -0.37441,12.3697 -0.37441,12.3697l-36.2445 54.6603c-1.37008,3.67559 -3.09803,7.40079 -5.20276,11.1626l-55.8886 131.979c-32.4166,-22.6169 -105.999,-59.2418 -138.421,-81.8552z"></path>
   <path id="SvgjsPath1021" class="fil29" d="M1004.8 1230.77l0 0c-0.775985,-0.438189 -1.55433,-0.872835 -2.33268,-1.30866 1.18937,0.666142 2.01851,1.13268 2.33268,1.30866z"></path>
   <path id="SvgjsPath1020" class="fil30" d="M975.066 1214.09c-1.59449,-0.902363 -3.17362,-1.79882 -4.74213,-2.6941l-2.41654 -1.37126 1.76102 0.999213c1.53543,0.878741 3.08268,1.75276 4.64764,2.64213l0.750001 0.424016z"></path>
   <path id="SvgjsPath1019" class="fil31" d="M929.57 1186.57l0 0 -0.00236221 0c0,0 0.00236221,0 0.00236221,0z"></path>
   <path id="SvgjsPath1018" class="fil30" d="M967.907 1210.02l0.00472441 -0.00708662c-14.9469,-8.55473 -28.461,-16.6205 -38.3422,-23.4496l0 0c9.87757,6.82914 23.3977,14.9043 38.341,23.452l-0.00354331 0.00472441z"></path>
   <path id="SvgjsPath1017" class="fil32" d="M1059.21 1020.7l30.1961 -116.589 -17.0055 -26.8512 -38.4957 -60.7748c-5.18504,-8.20276 -7.65945,-17.348 -7.65945,-26.3835l0 -0.0011811c0.00236221,-16.3843 8.14016,-32.4118 23.015,-41.8193 0.0874016,-0.056693 0.175984,-0.111024 0.265748,-0.166536 0.00944883,-0.00708662 0.022441,-0.0141732 0.0318898,-0.0212599 8.12127,-5.0563 17.1461,-7.47166 26.0705,-7.47402 0.0011811,-0.0011811 0.00590552,0 0.00944883,0l0 -0.0011811c0.00590552,0 0.0129921,0.0011811 0.0177165,0.0011811 16.0595,0.00590552 31.7705,7.8319 41.2441,22.1457 0.0330709,0.0496063 0.0637796,0.0968505 0.0980316,0.147638 0.0236221,0.034252 0.0448819,0.0708662 0.068504,0.10748 0.00472441,0.00472441 0.00826772,0.011811 0.0129921,0.0165354 0.0389764,0.0637796 0.0826772,0.127559 0.125197,0.19252 0.0850394,0.134646 0.17126,0.269292 0.257481,0.403937l5.40827 11.2736 7.44686 -28.7457c-74.3575,-9.66142 -91.6418,-36.7205 -94.3985,-36.7205 -0.185433,0 -0.307087,0.125197 -0.373229,0.383859 -3.93189,7.05591 -35.7225,218.244 -46.3536,291.384l70.0182 19.4917zm-71.5914 -8.59961c0,0 0.0011811,0 0.0011811,0l-0.0011811 0zm0.0555119 -0.390945l1.46575 -10.1421c-0.548032,3.77126 -1.04055,7.16812 -1.46575,10.1421z"></path>
   <path id="SvgjsPath1016" class="fil33" d="M1165.01 1057.77c0.239764,-1.76339 0.401575,-3.78898 0.499607,-5.27835 0.0212599,-0.311811 0.0389764,-0.597638 0.0531496,-0.853938l-0.552756 6.13229z"></path>
   <path id="SvgjsPath1015" class="fil3" d="M1350.98 830.148c3.05315,3.89528 8.68938,4.58032 12.587,1.52599l29.5784 -23.8323c3.89528,-3.05315 4.5815,-8.68583 1.52599,-12.5811 -3.05197,-3.89882 -8.68465,-4.5815 -12.587,-1.53071l-23.2453 18.215c-3.89646,3.05315 -10.9087,14.3055 -7.85906,18.2032z"></path>
   <path id="SvgjsPath1014" class="fil3" d="M1380.19 879.235c3.13701,4.0004 8.91497,4.70079 12.9177,1.56969l30.1819 -24.3071c3.99803,-3.13229 4.70079,-8.91733 1.56851,-12.913 -3.1311,-4.0004 -8.91497,-4.69961 -12.9142,-1.56851l-30.1831 24.3047c-4.0004,3.13583 -4.70315,8.91497 -1.57087,12.9142z"></path>
   <path id="SvgjsPath1013" class="fil3" d="M1362.47 844.809c3.29173,4.19882 9.36733,4.93701 13.5673,1.64764l31.3843 -25.2496c4.20591,-3.29173 4.93819,-9.36261 1.64764,-13.5602 -3.29173,-4.20237 -9.36261,-4.94292 -13.565,-1.65118l-31.3843 25.2484c-4.20237,3.28937 -4.93819,9.36497 -1.65,13.565z"></path>
   <path id="SvgjsPath1012" class="fil3" d="M1372.94 861.158c3.28819,4.20118 9.36142,4.93583 13.5626,1.64764l31.3855 -25.2473c4.20118,-3.29055 4.93937,-9.36379 1.64764,-13.5626 -3.29055,-4.20473 -9.36379,-4.94055 -13.565,-1.64882l-31.3866 25.2437c-4.2,3.2941 -4.93819,9.36969 -1.6441,13.5673z"></path>
   <path id="SvgjsPath1011" class="fil3" d="M1363.08 808.629c0,0 -20.4012,3.65315 -24.978,5.88544 -20.9681,18.4736 -26.5937,55.3489 -13.9382,71.4957 18.9496,24.1855 46.3843,12.7843 62.5335,0.129921l10.0217 -8.10946 -33.639 -69.4016z"></path>
   <path id="SvgjsPath1010" class="fil23" d="M1413.05 841.451c0,0 -0.491339,0.3 -1.31339,0.864568 -0.793701,0.605906 -2.05158,1.29921 -3.4441,2.26536 -0.694489,0.478347 -1.45039,0.996851 -2.24646,1.54606 -0.773623,0.574016 -1.64528,1.1126 -2.52756,1.69725 -1.77756,1.14449 -3.62481,2.43543 -5.47323,3.71693 -1.79173,1.3689 -3.69331,2.57362 -5.45197,3.75118 -1.75394,1.17756 -3.36969,2.31969 -4.73386,3.33425 -2.72717,2.03386 -4.48111,3.52677 -4.48111,3.52677 0,0 2.09646,-0.895276 5.14252,-2.44134 1.52126,-0.777166 3.27402,-1.72323 5.12835,-2.78268 1.87323,-1.02874 3.81024,-2.22284 5.65276,-3.56693 1.8437,-1.33819 3.69095,-2.66811 5.3752,-3.97914 1.72087,-1.25433 3.16299,-2.67638 4.42205,-3.82914 2.52166,-2.32087 3.95079,-4.10315 3.95079,-4.10315z"></path>
   <path id="SvgjsPath1009" class="fil23" d="M1406.7 821.573c0,0 -2.02559,0.907087 -4.89804,2.51103 -1.44449,0.785434 -3.07914,1.78937 -4.88741,2.75315 -1.8,0.982678 -3.66969,2.09882 -5.54292,3.21024 -3.71929,2.26772 -7.34646,4.68544 -9.99804,6.62599 -2.65984,1.92402 -4.34292,3.38386 -4.34292,3.38386 0,-0.0011811 2.05512,-0.81378 4.99607,-2.29134 2.94803,-1.46457 6.79134,-3.58701 10.5425,-5.85945 1.86024,-1.15748 3.72402,-2.31142 5.42481,-3.45591 1.73268,-1.10433 3.23268,-2.29843 4.52008,-3.3189 2.57717,-2.04095 4.18583,-3.55866 4.18583,-3.55866z"></path>
   <path id="SvgjsPath1008" class="fil23" d="M1394.56 806.549c0,0 -2.02559,0.90945 -4.89804,2.51339 -1.44685,0.785434 -3.0815,1.78937 -4.88977,2.75315 -1.79646,0.983859 -3.66733,2.09882 -5.54292,3.21024 -3.71693,2.26772 -7.3441,4.68662 -9.99568,6.62835 -2.66221,1.9252 -4.34292,3.3815 -4.34292,3.3815 0,0 2.05158,-0.811418 4.9937,-2.29252 2.9504,-1.46221 6.79371,-3.58583 10.5449,-5.85827 1.85788,-1.15984 3.72166,-2.31024 5.42599,-3.45473 1.73268,-1.10551 3.22914,-2.29961 4.51654,-3.32244 2.57717,-2.0374 4.18819,-3.55866 4.18819,-3.55866z"></path>
   <path id="SvgjsPath1007" class="fil23" d="M1363.08 808.629c0,0 -1.46339,0.629528 -3.50197,1.75276 -2.05158,1.10787 -4.67953,2.72835 -7.27323,4.37599 -1.27795,0.846851 -2.55827,1.69725 -3.75591,2.49095 -1.18937,0.806694 -2.30315,1.55669 -3.25512,2.20158 -0.937796,0.702756 -1.77284,1.11142 -2.34449,1.51063 -0.577559,0.388583 -0.908268,0.611811 -0.908268,0.611811 0,0 0.382677,-0.056693 1.06063,-0.197244 0.660237,-0.167717 1.69725,-0.314173 2.76614,-0.79252 1.09016,-0.440552 2.40355,-0.937796 3.67441,-1.65591 1.30158,-0.679134 2.65866,-1.46575 3.96378,-2.31378 2.62559,-1.68898 5.06457,-3.62835 6.80434,-5.20158 1.74921,-1.56142 2.76969,-2.78268 2.76969,-2.78268z"></path>
   <path id="SvgjsPath1006" class="fil3" d="M1129.93 968.092c14.5937,23.0729 45.1276,29.9528 68.2028,15.3532 23.0717,-14.5866 8.22402,-41.8796 -6.36851,-64.9607l-74.3044 -154.847c-14.5949,-23.0693 -45.1241,-29.9457 -68.2004,-15.352 -23.0752,14.5949 -29.9421,45.1288 -15.3543,68.204l96.0249 151.603z"></path>
   <path id="SvgjsPath1005" class="fil34" d="M1072.15 878.54l-39.2138 -61.9087c-14.8606,-23.5087 -7.86379,-54.6107 15.6414,-69.4784 23.5075,-14.8677 54.6071,-7.86142 69.4749,15.639l28.3193 59.0162c-23.4083,23.4059 -50.8158,33.3248 -74.2217,56.7319z"></path>
   <path id="SvgjsPath1004" class="fil3" d="M1340.09 902.451c29.2276,-21.6532 15.3449,-18.7571 7.27914,-37.4162 -8.06575,-18.6508 -8.12245,-27.9 -26.7792,-19.8354l-167.022 64.0099c-25.0571,10.8366 -38.3162,26.5382 -27.4807,51.5965 10.8319,25.0547 33.5044,37.9985 64.9914,25.7563 39.0201,-15.1736 149.012,-84.1099 149.012,-84.1111z"></path>
   <path id="SvgjsPath1003" class="fil29" d="M1172.01 991.096c8.60316,-0.0448819 17.2878,-2.33622 25.1622,-7.07481 -2.18268,0.961418 -4.21654,1.81417 -6.08977,2.54173 -6.77835,2.63504 -13.141,4.10315 -19.0725,4.53307z"></path>
   <path id="SvgjsPath1002" class="fil37" d="M1383.38 862.153c0,0 1.84725,-0.787796 4.59331,-2.16378 0.178347,-0.090945 0.361418,-0.183071 0.549213,-0.277559 1.52126,-0.777166 3.27402,-1.72323 5.12835,-2.78268 0.168898,-0.0944883 0.343701,-0.190158 0.51378,-0.284646 1.71142,-0.962599 3.46299,-2.05984 5.13898,-3.28229 1.8437,-1.33819 3.69095,-2.66811 5.3752,-3.97914 1.72087,-1.25433 3.16299,-2.67638 4.42205,-3.82914 2.46732,-2.27244 3.88819,-4.02638 3.94725,-4.09961 0.00354331,-0.00354331 0.00354331,-0.00354331 0.00354331,-0.00354331 0,0 -0.491339,0.3 -1.31339,0.864568 -0.793701,0.605906 -2.05158,1.29921 -3.4441,2.26536 -0.694489,0.478347 -1.45039,0.996851 -2.24646,1.54606 -0.773623,0.574016 -1.64528,1.1126 -2.52756,1.69725 -1.77756,1.14449 -3.62481,2.43543 -5.47323,3.71693 -1.79173,1.3689 -3.69331,2.57362 -5.45197,3.75118 -1.75394,1.17756 -3.36969,2.31969 -4.73386,3.33425 -0.138189,0.101575 -0.271654,0.201969 -0.402756,0.3 -2.49567,1.87914 -4.07835,3.22677 -4.07835,3.22677z"></path>
   <path id="SvgjsPath1001" class="fil39" d="M1371.43 825.337l17.4803 -14.0823c-0.588189,0.453544 -1.21417,0.923623 -1.87795,1.38543l-15.6024 12.6969zm21.0874 -16.9878l0.628347 -0.507874c0.32126,-0.251575 0.616536,-0.527953 0.890552,-0.818505 -0.347244,0.314173 -0.862205,0.770079 -1.5189,1.32638z"></path>
   <path id="SvgjsPath1000" class="fil8" d="M1164.54 1064.01c0.446457,-3.26811 1.0937,-13.6725 1.0937,-13.6725l-176.443 -49.1244 -2.82047 19.6925c0,0 119.186,31.9311 178.169,43.1044z"></path>
  </g>
 </g>
</svg><style>@media (prefers-color-scheme: light) { :root { filter: none; } }
</style></svg>